<svg id="Layer_1" enable-background="new 0 0 512 512" height="512" viewBox="0 0 512 512" width="512" xmlns="http://www.w3.org/2000/svg"><g><path d="m336.33 512c-1.933 0-3.882-.374-5.737-1.142-5.605-2.322-9.26-7.792-9.26-13.858v-176.733c0-3.978 1.58-7.793 4.394-10.606l64.267-64.267c5.857-5.858 15.355-5.858 21.213 0l64.267 64.267c2.813 2.813 4.394 6.628 4.394 10.606v48.2c0 3.978-1.58 7.793-4.394 10.606l-128.534 128.533c-2.869 2.87-6.706 4.394-10.61 4.394z" fill="#525cdd"/><path d="m400.6 238.867c-8.284 0-15-6.716-15-15v-144.6c0-5.199 2.691-10.027 7.114-12.76 4.419-2.733 9.942-2.983 14.594-.657l96.4 48.2c5.082 2.541 8.292 7.735 8.292 13.417 0 61.426-49.973 111.4-111.4 111.4z" fill="#525cdd"/><path d="m175.67 512c-3.903 0-7.74-1.524-10.609-4.394l-128.533-128.533c-2.813-2.813-4.394-6.628-4.394-10.606v-48.2c0-3.978 1.58-7.793 4.394-10.606l64.267-64.267c5.857-5.858 15.355-5.858 21.213 0l64.267 64.267c2.813 2.813 4.394 6.628 4.394 10.606v176.733c0 6.067-3.654 11.537-9.26 13.858-1.857.769-3.806 1.142-5.739 1.142z" fill="#4793ff"/><path d="m111.401 238.867c-61.427 0-111.4-49.974-111.4-111.4 0-5.682 3.21-10.875 8.292-13.417l96.4-48.2c4.65-2.325 10.171-2.076 14.594.657s7.114 7.561 7.114 12.76v144.6c0 8.284-6.716 15-15 15z" fill="#4793ff"/><path d="m400.6 0h-80.333c-8.284 0-15 6.716-15 15v64.267c0 27.209-22.057 49.267-49.267 49.267s-49.267-22.057-49.267-49.267v-64.267c0-8.284-6.716-15-15-15h-80.333c-8.284 0-15 6.716-15 15v241c0 3.978 1.58 7.793 4.394 10.606l59.873 59.874v170.52c0 8.284 6.716 15 15 15h160.666c8.284 0 15-6.716 15-15v-170.52l59.873-59.874c2.813-2.813 4.394-6.628 4.394-10.606v-241c0-8.284-6.716-15-15-15z" fill="#1e3c50"/><g fill="#192837"><path d="m351.333 497v-170.52l59.873-59.874c2.813-2.813 4.394-6.628 4.394-10.606v-241c0-8.284-6.716-15-15-15h-80.333c-8.284 0-15 6.716-15 15v64.267c0 27.209-22.057 49.267-49.267 49.267v383.466h80.333c8.284 0 15-6.716 15-15z"/><path d="m160.667 337.4h190.666v30h-190.666z"/><path d="m160.667 417.733h190.666v30h-190.666z"/><path d="m96.401 64.267v30h112.666c-1.511-4.73-2.333-9.768-2.333-15v-15z"/></g><path d="m415.6 94.267v-30h-110.333v15c0 5.232-.823 10.27-2.333 15z" fill="#14141e"/><path d="m96.401 128.533h319.199v30h-319.199z" fill="#192837"/><path d="m256 337.4h95.333v30h-95.333z" fill="#14141e"/><path d="m256 417.733h95.333v30h-95.333z" fill="#14141e"/><path d="m256 128.533h159.6v30h-159.6z" fill="#14141e"/></g></svg>