<svg id="flat" height="512" viewBox="0 0 512 512" width="512" xmlns="http://www.w3.org/2000/svg"><path d="m152 120h192v192h-192z" fill="#c69324"/><path d="m192 208h48v40h-48z" fill="#f5c99d"/><path d="m200 176h32a8 8 0 0 1 8 8v24a0 0 0 0 1 0 0h-48a0 0 0 0 1 0 0v-24a8 8 0 0 1 8-8z" fill="#cc4c4d"/><path d="m48 64h48v48h-48z" fill="#f5c99d"/><path d="m56 32h32a8 8 0 0 1 8 8v24a0 0 0 0 1 0 0h-48a0 0 0 0 1 0 0v-24a8 8 0 0 1 8-8z" fill="#cc4c4d"/><path d="m16 464h368v16h-368z" fill="#c69324"/><path d="m182.99828 384-14.38983 38.37729a8.00006 8.00006 0 0 1 -1.83389 2.84815l-44.43141 44.43141a8 8 0 0 1 -5.65686 2.34315h-13.14078a8 8 0 0 1 -6.50986-12.64991l30.16149-42.22609a8 8 0 0 0 1.18233-2.45214l15.62053-54.67186v-16h40z" fill="#b0a9a5"/><path d="m144 320v35.88306a8 8 0 0 0 3.35009 6.50986l48.8304 34.87886a8 8 0 0 1 3.30117 7.39332l-6.49461 58.45145a8 8 0 0 0 7.95107 8.88345h9.10963a8 8 0 0 0 7.66262-5.70122l21.378-71.26a8.00005 8.00005 0 0 0 -.5072-5.8765l-30.58117-61.16228v-8z" fill="#efe8e0"/><path d="m16 328h128v16h-128z" fill="#98630d"/><path d="m304 312v24h-16l-38.44813-7.68963a7.99994 7.99994 0 0 1 -2.86867-1.18824l-17.22626-11.48413a8 8 0 0 0 -10.09445.99955l-11.36249 11.36245h-64v-22.45934a7.99994 7.99994 0 0 1 .57219-2.97113l14.59466-36.48665a8.00005 8.00005 0 0 1 2.62781-3.42888l27.46678-20.60008a8 8 0 0 1 6.11519-1.49115l40.97933 6.82989a8 8 0 0 1 5.54475 3.77518l21.293 35.48838a8.00014 8.00014 0 0 0 2.05995 2.284l30.74634 23.05978z" fill="#4fbfcb"/><circle cx="384" cy="368" fill="#eebf3e" r="104"/><path d="m19.5624 114.9584 28.4376-18.9584 44.5813 7.43022a8 8 0 0 1 5.34121 3.45355l29.63808 44.45712a8.0006 8.0006 0 0 0 .99955 1.21925l23.43986 23.43986v24l-37.62483-7.525a8 8 0 0 1 -4.08793-2.18779l-24.63039-24.63036a8 8 0 0 0 -11.3137 0l-9.42515 9.42515a8.00013 8.00013 0 0 0 -1.49856 2.07914l-5.20827 10.41655a8 8 0 0 1 -7.15544 4.42231h-35.05573v-70.3852a8 8 0 0 1 3.5624-6.6564z" fill="#4fbfcb"/><path d="m56 192 30.84885 77.12211a8.00008 8.00008 0 0 1 .06282 5.78012l-20.96504 55.90677a8 8 0 0 1 -7.49063 5.191h-9.39374a8 8 0 0 1 -7.93823-8.99228l6.47511-51.80088a8 8 0 0 0 -1.53822-5.79228l-28.461-37.948a8 8 0 0 1 -1.6-4.8l.00008-34.66656z" fill="#efe8e0"/><g fill="#f5c99d"><path d="m115.636 192.728 36.364 7.272v-24l-18.667-18.667z"/><path d="m252.103 328.82 35.897 7.18h16v-24h-8l-24-18z"/></g></svg>