<svg height="511pt" viewBox="-43 0 511 511.99933" width="511pt" xmlns="http://www.w3.org/2000/svg"><path d="m88.597656 278.238281c0 24.328125-19.71875 44.050781-44.046875 44.050781s-44.050781-19.722656-44.050781-44.050781 19.722656-44.050781 44.050781-44.050781 44.046875 19.722656 44.046875 44.050781zm0 0" fill="#ff9a5c"/><path d="m69.773438 417.292969-25.078126 9.433593c-8.246093 3.101563-17.441406-1.070312-20.539062-9.308593-3.101562-8.242188 1.066406-17.441407 9.308594-20.539063l25.082031-9.433594c8.242187-3.101562 17.4375 1.066407 20.539063 9.308594 3.101562 8.242188-1.066407 17.4375-9.3125 20.539063zm0 0" fill="#546370"/><path d="m57.765625 391.160156-25.082031 9.433594c-8.242188 3.101562-17.4375-1.066406-20.539063-9.308594-3.101562-8.242187 1.070313-17.4375 9.308594-20.539062l25.082031-9.433594c8.242188-3.101562 17.4375 1.070312 20.539063 9.308594 3.101562 8.242187-1.066407 17.4375-9.308594 20.539062zm0 0" fill="#6b7d8e"/><path d="m53.859375 364.558594-25.082031 9.4375c-8.242188 3.097656-17.4375-1.070313-20.535156-9.3125-3.101563-8.242188 1.066406-17.4375 9.308593-20.539063l25.082031-9.433593c8.242188-3.101563 17.4375 1.070312 20.535157 9.3125 3.101562 8.242187-1.066407 17.433593-9.308594 20.535156zm0 0" fill="#546370"/><path d="m57.765625 338.292969-25.082031 9.4375c-8.242188 3.097656-17.4375-1.070313-20.539063-9.3125-3.101562-8.242188 1.070313-17.4375 9.308594-20.539063l25.082031-9.433594c8.242188-3.101562 17.4375 1.070313 20.539063 9.3125 3.101562 8.242188-1.066407 17.4375-9.308594 20.535157zm0 0" fill="#6b7d8e"/><path d="m355.613281 512h-285.527343c-16.832032 0-30.476563-13.644531-30.476563-30.476562v-14.675782c0-50.714844 41.113281-91.828125 91.828125-91.828125h162.824219c50.714843 0 91.828125 41.113281 91.828125 91.828125v14.671875c0 16.835938-13.644532 30.480469-30.476563 30.480469zm0 0" fill="#5ad6ff"/><path d="m212.851562 375.019531h-81.414062c-50.714844 0-91.828125 41.113281-91.828125 91.828125v14.675782c0 16.832031 13.644531 30.476562 30.476563 30.476562h142.765624zm0 0" fill="#00c5fd"/><path d="m111.140625 439.941406 49.300781 20.421875c12.113282 5.015625 26.074219.421875 32.835938-10.8125l19.574218-32.507812-89.984374-41.628907zm0 0" fill="#5ad6ff"/><path d="m314.5625 439.941406-49.304688 20.421875c-12.113281 5.015625-26.074218.421875-32.835937-10.8125l-19.570313-32.507812 89.976563-41.628907zm0 0" fill="#a4e7ff"/><path d="m122.867188 375.414062c-46.695313 4.324219-83.257813 43.609376-83.257813 91.433594v14.675782c0 16.832031 13.644531 30.476562 30.476563 30.476562h81.902343c-6.523437-30.632812-21.261719-99.820312-29.121093-136.585938zm0 0" fill="#6b7d8e"/><path d="m302.828125 375.414062c46.695313 4.324219 83.261719 43.609376 83.261719 91.433594v14.671875c0 16.835938-13.644532 30.480469-30.476563 30.480469h-81.902343c6.523437-30.632812 21.261718-99.820312 29.117187-136.585938zm0 0" fill="#6b7d8e"/><path d="m425.199219 278.238281c0 24.328125-19.722657 44.050781-44.046875 44.050781-24.328125 0-44.050782-19.722656-44.050782-44.050781s19.722657-44.050781 44.050782-44.050781c24.324218 0 44.046875 19.722656 44.046875 44.050781zm0 0" fill="#ffbd86"/><path d="m228.835938 417.046875h-31.96875c-83.773438 0-152.316407-68.542969-152.316407-152.316406v-69.976563c0-92.566406 75.734375-168.300781 168.300781-168.300781 92.5625 0 168.300782 75.734375 168.300782 168.300781v69.976563c0 83.773437-68.542969 152.316406-152.316406 152.316406zm0 0" fill="#fed2a4"/><path d="m125.132812 302.046875c-7.851562-41.566406 4.980469-84.101563 33.089844-115.714844 41.796875-47.015625 54.628906-159.875 54.628906-159.875-92.566406 0-168.300781 75.734375-168.300781 168.300781v69.976563c0 83.207031 67.628907 151.386719 150.628907 152.308594-44.292969-36.683594-63.171876-78.589844-70.046876-114.996094zm0 0" fill="#ffbd86"/><path d="m212.851562 299.839844c-10 0-20-3.238282-28.347656-9.710938-3.371094-2.613281-3.984375-7.46875-1.367187-10.839844 2.613281-3.371093 7.46875-3.984374 10.839843-1.371093 11.113282 8.621093 26.632813 8.621093 37.746094 0 3.371094-2.613281 8.226563-2 10.839844 1.371093 2.617188 3.371094 2.003906 8.226563-1.371094 10.839844-8.339844 6.472656-18.339844 9.710938-28.339844 9.710938zm0 0" fill="#454545"/><path d="m170.632812 259.339844-10.925781-10.925782c14.195313-14.195312 33.066407-22.011718 53.144531-22.011718 20.074219 0 38.945313 7.816406 53.140626 22.011718l-10.925782 10.925782c-11.277344-11.277344-26.269531-17.488282-42.214844-17.488282-15.949218.003907-30.941406 6.210938-42.21875 17.488282zm0 0" fill="#3d4751"/><path d="m122.953125 303.671875c-24.460937-2.527344-42.242187-24.40625-39.714844-48.867187 2.527344-24.460938 24.40625-42.242188 48.867188-39.714844 24.460937 2.527344 44.605469 14.582031 42.078125 39.042968-2.527344 24.460938-26.769532 52.0625-51.230469 49.539063zm0 0" fill="#6b7d8e"/><path d="m300.605469 303.671875c24.460937-2.527344 42.242187-24.40625 39.714843-48.867187-2.527343-24.460938-24.402343-42.242188-48.863281-39.714844-24.460937 2.527344-44.609375 14.582031-42.082031 39.042968 2.527344 24.460938 26.769531 52.0625 51.230469 49.539063zm0 0" fill="#6b7d8e"/><path d="m186.242188 153.351562s-28.132813 20.660157-80.683594 27.335938c-28.035156 3.558594-43.085938 32.035156-51.027344 57.828125-3.585938 11.632813-20.210938 11.160156-23.253906-.625-7.683594-29.800781-13.070313-68.980469 1.710937-97.015625 24.308594-46.101562 50.011719-52.886719 50.011719-52.886719l80.953125 16.789063zm0 0" fill="#666667"/><path d="m125.769531 177.246094c39.519531-8.507813 60.472657-23.894532 60.472657-23.894532l-22.292969-48.574218-80.949219-16.789063s-12.855469 3.402344-28.972656 21.679688c13.277344 21.25 36.367187 49.84375 71.742187 67.578125zm0 0" fill="#575757"/><path d="m239.457031 153.351562s28.132813 20.660157 80.683594 27.335938c28.035156 3.558594 43.085937 32.035156 51.03125 57.828125 3.582031 11.632813 20.210937 11.160156 23.25-.625 7.683594-29.800781 12.773437-68.828125-1.710937-97.015625-26.691407-51.945312-50.597657-52.886719-50.597657-52.886719l-80.363281 16.789063zm0 0" fill="#666667"/><path d="m379.039062 117.984375c-20.667968-29.351563-36.925781-29.996094-36.925781-29.996094l-80.363281 16.789063-22.292969 48.574218s28.132813 20.660157 80.683594 27.335938c28.449219-15.851562 47.492187-42.15625 58.898437-62.703125zm0 0" fill="#575757"/><path d="m83 87.988281 102.660156 65.363281c13.53125 8.617188 29.726563 12.125 45.589844 9.714844 37.464844-5.695312 105.46875-26.289062 148.574219-100.097656 4.960937-8.492188-1.796875-19.175781-11.582031-18.234375-8.9375.859375-20.371094-.664063-34.667969-7.28125-42.320313-19.59375-97.683594-54.816406-166.917969-27.386719-71.269531 28.234375-83.65625 77.921875-83.65625 77.921875zm0 0" fill="#767678"/></svg>