<?xml version="1.0"?>
<svg xmlns="http://www.w3.org/2000/svg" id="filled_outline" data-name="filled outline" viewBox="0 0 512 512" width="512" height="512"><rect x="352" y="216" width="32" height="88" style="fill:#ffb401"/><path d="M248,128v16a48,48,0,0,0,48,48h24V168H296a24,24,0,0,1-24-24V128Z" style="fill:#ffb401"/><path d="M432,128h32v16a24,24,0,0,1-24,24H416v24h24a48,48,0,0,0,48-48V120a16,16,0,0,0-16-16H432Z" style="fill:#ffb401"/><path d="M304,88H432a0,0,0,0,1,0,0v72.00006A63.99994,63.99994,0,0,1,368.00006,224h-.00013A63.99994,63.99994,0,0,1,304,160.00006V88a0,0,0,0,1,0,0Z" style="fill:#ffc431"/><polygon points="432 336 304 336 320 304 416 304 432 336" style="fill:#ffc431"/><rect x="280" y="336" width="176" height="144" style="fill:#c47220"/><rect x="320" y="368" width="96" height="80" style="fill:#ea964b"/><path d="M224,456l40-16-6.92625-90.04124a55.99991,55.99991,0,0,0-8.59-25.77L200,248H96v96L64,456l40-16,0,0,0,0,41.91824-69.86373a56,56,0,0,0,7.548-21.86581L160,296l48,72Z" style="fill:#718799"/><path d="M344,56.31006A26.29218,26.29218,0,0,1,339.87,70.48L294.1,142.40991a31.96555,31.96555,0,0,1-16.88,13.17993L247.2,165.6001,216,176l-16,72H96V176L80,192,48,160l20.28-20.28a39.99389,39.99389,0,0,1,28.29-11.72H208l24.35-6.96L264,112l32-48V45.65685A5.65685,5.65685,0,0,1,301.65685,40h0a5.65684,5.65684,0,0,1,4,1.65685L312,48l16-16,1.40991.7A26.41941,26.41941,0,0,1,344,56.31006Z" style="fill:#ffa100"/><path d="M53.18969,154.81031,38.68228,169.31772A50.12843,50.12843,0,0,0,24,204.76388v0a50.12847,50.12847,0,0,0,12.86826,33.53415l49.876,55.41778a16,16,0,0,0,20.76791,2.60937L120,288l-8-16,5.93551-5.93551A7.04861,7.04861,0,0,0,120,261.08037h0a7.04862,7.04862,0,0,0-4.81965-6.68691L96,248,64,208l21.00527-21.00527Z" style="fill:#ffceb6"/><polygon points="224 456 224 480 296 480 296 464 264 440 224 456" style="fill:#d1e4ff"/><polygon points="64 456 64 480 136 480 136 464 104 440 64 456" style="fill:#d1e4ff"/><path d="M344,56.31006A26.29218,26.29218,0,0,1,339.87,70.48L294.1,142.40991a31.96555,31.96555,0,0,1-16.88,13.17993L247.2,165.6001,232.35,121.04,264,112l32-48V45.65685A5.65685,5.65685,0,0,1,301.65685,40h0a5.65684,5.65684,0,0,1,4,1.65685L312,48l16-16,1.40991.7A26.41941,26.41941,0,0,1,344,56.31006Z" style="fill:#ffceb6"/><polygon points="152 168 144 208 160 224 176 208 168 168 152 168" style="fill:#ef5e3b"/><polygon points="152 168 144 152 160 136 176 152 168 168 152 168" style="fill:#e04f2b"/><path d="M160,136h0a24,24,0,0,1-24-24v-8l16-16h32v24A24,24,0,0,1,160,136Z" style="fill:#ffceb6"/><path d="M184,88l6.63344-13.26688A12.94424,12.94424,0,0,0,192,68.94427h0A12.94426,12.94426,0,0,0,179.05574,56H160a24,24,0,0,0-24,24v24l16-16Z" style="fill:#c47220"/><path d="M472,96H440V88a8.00008,8.00008,0,0,0-8-8H360V96h64v64a56.00365,56.00365,0,0,1-111.56641,7.00977l-15.87695,1.98046A71.57556,71.57556,0,0,0,300.11426,184H296a39.80235,39.80235,0,0,1-22.1123-6.66211l-8.85938,13.32422A55.76285,55.76285,0,0,0,296,200h12.14124A72.36285,72.36285,0,0,0,344,227.86279V296H320a7.99967,7.99967,0,0,0-7.15527,4.42188L299.05566,328H280v16H448V472H320v16H456a8.00008,8.00008,0,0,0,8-8V336a8.00008,8.00008,0,0,0-8-8H436.94434l-13.78907-27.57812A7.99967,7.99967,0,0,0,416,296H392V227.87158A72.35241,72.35241,0,0,0,427.83313,200H440a56.06322,56.06322,0,0,0,56-56V120A24.02718,24.02718,0,0,0,472,96ZM419.05566,328H316.94434l8-16h86.11132ZM376,296H360V231.53833a70.041,70.041,0,0,0,16,.00659Zm64-160h16v8a16.01833,16.01833,0,0,1-16,16Zm40,8a40.04552,40.04552,0,0,1-40,40h-4.1283a71.37907,71.37907,0,0,0,2.31409-8H440a32.03635,32.03635,0,0,0,32-32V128a8.00008,8.00008,0,0,0-8-8H440v-8h32a8.00917,8.00917,0,0,1,8,8Z"/><path d="M416,456a8.00008,8.00008,0,0,0,8-8V368a8.00008,8.00008,0,0,0-8-8H320a8.00008,8.00008,0,0,0-8,8v80a8.00008,8.00008,0,0,0,8,8Zm-88-80h80v64H328Z"/><rect x="344" y="400" width="48" height="16"/><path d="M279.75146,163.18262A40.12211,40.12211,0,0,0,300.84912,146.71L346.62256,74.7793a34.39581,34.39581,0,0,0-13.63721-49.23145l-1.40869-.7041a8.00155,8.00155,0,0,0-9.2334,1.499L312,36.68652l-.68359-.68359A13.65669,13.65669,0,0,0,288,45.65723V61.57812l-29.02539,43.53711L206.87988,120H190.9873A31.94168,31.94168,0,0,0,192,112V89.88867l5.78857-11.57715A20.94437,20.94437,0,0,0,179.05566,48H160a32.03635,32.03635,0,0,0-32,32v32a31.94168,31.94168,0,0,0,1.0127,8H96.56836a47.68554,47.68554,0,0,0-33.94092,14.05859L33.0249,163.66113a58.12838,58.12838,0,0,0-2.103,79.98828l49.876,55.418A23.711,23.711,0,0,0,88,304.499v38.38086L56.30762,453.80176A8.00881,8.00881,0,0,0,56,456v24a8.00008,8.00008,0,0,0,8,8h72a8.00008,8.00008,0,0,0,8-8V464a8.00091,8.00091,0,0,0-3.2002-6.40039l-26.22753-19.6709L152.77881,374.252a63.60819,63.60819,0,0,0,8.62549-24.98925l3.8667-30.9336,35.15429,52.73145L216,456.7207V480a8.00008,8.00008,0,0,0,8,8h72a8.00008,8.00008,0,0,0,8-8V464a8.00091,8.00091,0,0,0-3.2002-6.40039l-29.10107-21.8252-6.64844-86.42871a64.23219,64.23219,0,0,0-9.81738-29.45215L208.52832,246.501l14.29834-64.34375Zm-13.55371-43.49024a8.00125,8.00125,0,0,0,4.4585-3.25488l32-48A8.00221,8.00221,0,0,0,304,64V51.31348l2.34326,2.34375a8.00182,8.00182,0,0,0,11.31348,0L329.25,42.06348a18.40833,18.40833,0,0,1,3.874,24.126l-45.77343,71.93067a24.06983,24.06983,0,0,1-12.6587,9.88281l-22.43237,7.47754-9.67993-29.04Zm-98.88183,85.67871L160,212.68652l-7.31592-7.31543L158.55859,176h2.88282ZM163.05566,160h-6.11132l-3.21021-6.42041L160,147.31348l6.26587,6.26611ZM160,128a16.01833,16.01833,0,0,1-16-16v-4.68652L155.31348,96H176v16A16.01833,16.01833,0,0,1,160,128Zm0-64h19.05566a4.94417,4.94417,0,0,1,4.42237,7.15527L179.05566,80H152a8.00035,8.00035,0,0,0-5.65674,2.34277L144,84.686V80A16.01833,16.01833,0,0,1,160,64ZM42.81445,232.94629a42.12892,42.12892,0,0,1,1.52442-57.97168l3.66089-3.66089L68.686,192,58.34326,202.34277a8.00018,8.00018,0,0,0-.59033,10.6543l32,40a8.00066,8.00066,0,0,0,3.71728,2.59277l17.71973,5.90625-4.84668,4.84668a8.00091,8.00091,0,0,0-1.49853,9.23535l4.84131,9.68262-6.61182,4.40821a8.04611,8.04611,0,0,1-10.38379-1.30469ZM88,195.31348v29.87988L74.72021,208.59375ZM128,468v4H72V461.41626l30.79651-12.3186Zm160,0v4H232V461.41626l30.79651-12.3186ZM241.73438,328.4834a48.16725,48.16725,0,0,1,7.36279,22.08887l6.47558,84.18237L230.11963,444.936l-14.24854-78.3667a7.991,7.991,0,0,0-1.21484-3.00684l-48-72a7.99962,7.99962,0,0,0-14.59424,3.44531l-6.53369,52.27051a47.71381,47.71381,0,0,1-6.46973,18.74219l-40.5321,67.55273L76.1731,442.51465l27.51928-96.31641A8.00881,8.00881,0,0,0,104,344V306.37939a23.688,23.688,0,0,0,7.94971-3.39794l12.48779-8.3252a7.99984,7.99984,0,0,0,2.71777-10.23437l-5.42138-10.8418,1.85937-1.85938A15.01534,15.01534,0,0,0,127.10938,256h68.4989ZM208.19043,174.26465,193.58252,240H104V176a8.00038,8.00038,0,0,0-13.65674-5.65723L80,180.686,59.31372,159.99976l14.62769-14.62769A31.78764,31.78764,0,0,1,96.56836,136h42.29956a32.16132,32.16132,0,0,0,5.76111,4.05713l-22.28577,22.28564,11.31348,11.31446,8.15161-8.15186,1.80884,3.61768-7.46192,37.30761a8.00154,8.00154,0,0,0,2.188,7.22657l16,16a8.00063,8.00063,0,0,0,11.31348,0l16-16a8.00154,8.00154,0,0,0,2.188-7.22657l-7.46192-37.30761,1.80884-3.61768,8.15161,8.15186,11.31348-11.31446L175.371,140.05713A32.16132,32.16132,0,0,0,181.13208,136H208a8.00533,8.00533,0,0,0,2.19775-.30762l16.98291-4.85229,9.89991,29.7-23.61036,7.87012A8.00116,8.00116,0,0,0,208.19043,174.26465Z"/></svg>
