<svg id="Layer_3" enable-background="new 0 0 64 64" height="512" viewBox="0 0 64 64" width="512" xmlns="http://www.w3.org/2000/svg"><g><path d="m42 62h-20c-3.314 0-6-2.686-6-6v-48c0-3.314 2.686-6 6-6h20c3.314 0 6 2.686 6 6v48c0 3.314-2.686 6-6 6z" fill="#8892a0"/><path d="m16 8h32v42h-32z" fill="#8bd2f5"/><path d="m39 24h20c1.657 0 3 1.343 3 3v16c0 1.657-1.343 3-3 3h-20c-1.657 0-3-1.343-3-3v-4l-5-5h5v-7c0-1.657 1.343-3 3-3z" fill="#c7e2fb"/><path d="m59 24.5c0-.168-.011-.333-.015-.5h-19.985c-1.657 0-3 1.343-3 3v7h-5l5 5v4c0 .716.261 1.365.681 1.881 12.546-1.097 22.319-9.802 22.319-20.381z" fill="#ebf7fe"/><path d="m43 46v-6c0-1.105.895-2 2-2h8c1.105 0 2 .895 2 2v6z" fill="#4472b0"/><g><path d="m51 41h2v5h-2z" fill="#698ec0"/></g><g><path d="m45 41h2v5h-2z" fill="#698ec0"/></g><path d="m49 28c1.657 0 3 1.343 3 3v2c0 1.657-1.343 3-3 3-1.657 0-3-1.343-3-3v-2c0-1.657 1.343-3 3-3z" fill="#fadfb2"/><path d="m25 34h-20c-1.657 0-3-1.343-3-3v-16c0-1.657 1.343-3 3-3h20c1.657 0 3 1.343 3 3v7l5 5h-5v4c0 1.657-1.343 3-3 3z" fill="#c7e2fb"/><path d="m24.944 12h-19.944c-1.657 0-3 1.343-3 3v15.776c.981.133 1.978.224 3 .224 11.046 0 20-8.059 20-18 0-.338-.036-.667-.056-1z" fill="#ebf7fe"/><circle cx="32" cy="56" fill="#fff" r="2"/><path d="m9 34v-6c0-1.105.895-2 2-2h8c1.105 0 2 .895 2 2v6z" fill="#4472b0"/><g><path d="m17 29h2v5h-2z" fill="#698ec0"/></g><g><path d="m11 29h2v5h-2z" fill="#698ec0"/></g><path d="m15 16c1.657 0 3 1.343 3 3v2c0 1.657-1.343 3-3 3-1.657 0-3-1.343-3-3v-2c0-1.657 1.343-3 3-3z" fill="#fadfb2"/><g><path d="m31 44h2v2h-2z" fill="#fff"/></g><g><path d="m27 44h2v2h-2z" fill="#fff"/></g><g><path d="m23 44h2v2h-2z" fill="#fff"/></g><g><path d="m39 11h2v2h-2z" fill="#fff"/></g><g><path d="m35 11h2v2h-2z" fill="#fff"/></g><g><path d="m31 11h2v2h-2z" fill="#fff"/></g></g></svg>