<svg height="512" viewBox="0 0 58 58" width="512" xmlns="http://www.w3.org/2000/svg"><g id="Page-1" fill="none" fill-rule="evenodd"><g id="027---Group-Chat" fill-rule="nonzero"><path id="Shape" d="m44 55v1c-.0032948 1.1032019-.8967981 1.9967052-2 2h-26c-1.1032019-.0032948-1.9967052-.8967981-2-2v-1c.002401-5.9753017 3.549177-11.3799128 9.03-13.76 3.6340736 2.3467316 8.3059264 2.3467316 11.94 0 1.730947.7480377 3.3025953 1.8206962 4.63 3.16 2.8217111 2.8050799 4.4057795 6.6212447 4.4 10.6z" fill="#f29c1f"/><g fill="#e57e25"><path id="Shape" d="m23 53v5h-2v-5c0-.5522847.4477153-1 1-1s1 .4477153 1 1z"/><path id="Shape" d="m37 53v5h-2v-5c0-.5522847.4477153-1 1-1s1 .4477153 1 1z"/><path id="Shape" d="m23.03 41.24c-5.480823 2.3800872-9.027599 7.7846983-9.03 13.76h-12.27c-.95385905-.0038363-1.72616369-.776141-1.73-1.73v-2.34c-.0045412-5.0626954 2.94066784-9.6640962 7.54-11.78 3.7527733 2.871418 9.0880361 2.3470678 12.21-1.2.8426007 1.3209176 1.9616535 2.4433822 3.28 3.29z"/></g><path id="Shape" d="m19.75 37.95c-2.5283246 2.8716365-6.5958672 3.830858-10.14083763 2.3914461-3.5449704-1.4394118-5.79238678-4.9627807-5.6030598-8.7841518.18932697-3.8213711 2.77400769-7.1053373 6.44389743-8.1872943l.04-.02 1.85-.32c.22-.02.44-.03.66-.03 2.5841961-.0026371 5.044097 1.1088737 6.75 3.05z" fill="#f9c795"/><path id="Shape" d="m8 51v4h-2v-4c0-.5522847.44771525-1 1-1s1 .4477153 1 1z" fill="#d25627"/><path id="Shape" d="m58 50.93v2.34c-.0038363.953859-.776141 1.7261637-1.73 1.73h-12.27c.0057795-3.9787553-1.5782889-7.7949201-4.4-10.6-1.3274047-1.3393038-2.899053-2.4119623-4.63-3.16 1.3183465-.8466178 2.4373993-1.9690824 3.28-3.29 3.1219639 3.5470678 8.4572267 4.071418 12.21 1.2 4.5993322 2.1159038 7.5445412 6.7173046 7.54 11.78z" fill="#e57e25"/><path id="Shape" d="m38.25 26.05c1.705903-1.9411263 4.1658039-3.0526371 6.75-3.05.22 0 .44.01.66.03l1.85.32.04.02c3.6698897 1.081957 6.2545705 4.3659232 6.4438974 8.1872943.189327 3.8213711-2.0580894 7.34474-5.6030598 8.7841518-3.5449704 1.4394119-7.612513.4801904-10.1408376-2.3914461z" fill="#f9c795"/><path id="Shape" d="m52 51v4h-2v-4c0-.5522847.4477153-1 1-1s1 .4477153 1 1z" fill="#d25627"/><path id="Shape" d="m31.34 21.26c5.4944034 1.1955053 9.2041101 6.3403836 8.6029112 11.9311136-.6011988 5.5907299-5.3199492 9.8292546-10.9429112 9.8292546s-10.3417124-4.2385247-10.9429112-9.8292546c-.6011989-5.59073 3.1085078-10.7356083 8.6029112-11.9311136z" fill="#fdd7ad"/><path id="Shape" d="m48.6 14.18c.8024777 3.081696.4132455 6.352675-1.09 9.16v.01c-.3328235.5859493-.7212818 1.1384979-1.16 1.65-.1924638-.6692176-.4228359-1.3269465-.69-1.97-.79-1.94-2.29-4.79-4.67-6.2h-.01v-.04c-2.4741236.534107-4.984262.8850584-7.51 1.05v.01l-2.13 3.41-1.13 1.81-1.21 1.93-1.21-1.93-1.13-1.81-2.13-3.41v-.01c-2.5219288-.1698475-5.0283873-.5207517-7.5-1.05h-.01v.04h-.01c-2.38 1.41-3.88 4.26-4.67 6.2-.2671641.6430535-.4975362 1.3007824-.69 1.97-.4387182-.5115021-.8271765-1.0640507-1.16-1.65v-.01c-1.50324548-2.807325-1.8924777-6.078304-1.09-9.16-2.77-1.45-4.4-3.25-4.4-5.18 0-4.97 10.75-9 24-9s24 4.03 24 9c0 1.93-1.63 3.73-4.4 5.18z" fill="#3b97d3"/><circle id="Oval" cx="29" cy="9" fill="#fff" r="2"/><circle id="Oval" cx="20" cy="9" fill="#fff" r="2"/><circle id="Oval" cx="38" cy="9" fill="#fff" r="2"/></g></g></svg>