<?xml version="1.0"?>
<svg xmlns="http://www.w3.org/2000/svg" id="filled_outline" data-name="filled outline" viewBox="0 0 512 512" width="512" height="512"><rect x="224" y="320" width="64" height="40" style="fill:#4f5dff"/><polygon points="224 360 240 384 272 384 288 360 224 360" style="fill:#4551f7"/><path d="M312,256a67.60414,67.60414,0,0,1-7.15991,30.31L288,320H224l-16.84-33.69A67.72325,67.72325,0,0,1,200,256a56,56,0,1,1,112,0Z" style="fill:#ffc431"/><circle cx="144" cy="128" r="48" style="fill:#ef5e3b"/><circle cx="368" cy="128" r="48" style="fill:#ef5e3b"/><rect x="320" y="416" width="96" height="80" style="fill:#ffa100"/><path d="M320,416V321.88853A9.88854,9.88854,0,0,1,329.88853,312h0a9.88853,9.88853,0,0,1,8.84457,5.46625L360,360l37.40665-82.29462A9.73285,9.73285,0,0,1,406.26712,272h0A9.73286,9.73286,0,0,1,416,281.73286V416Z" style="fill:#ffceb6"/><rect x="96" y="416" width="96" height="80" style="fill:#ffa100"/><path d="M96,416h96V321.88853A9.88854,9.88854,0,0,0,182.11147,312h0a9.88853,9.88853,0,0,0-8.84457,5.46625L152,360l-37.40665-82.29462A9.73285,9.73285,0,0,0,105.73288,272h0A9.73286,9.73286,0,0,0,96,281.73286Z" style="fill:#ffceb6"/><circle cx="256" cy="72" r="48" style="fill:#02c26a"/><path d="M296,321.88818l16-31.99951a76.073,76.073,0,0,0,6.87915-20.97113l24.239-17.31354-9.2998-13.01953-14.23987,10.17127A64.10686,64.10686,0,0,0,264,192.51782V176H248v16.51782a64.1068,64.1068,0,0,0-55.57849,56.23792l-14.23987-10.17127-9.2998,13.01953,24.23907,17.31354A76.07282,76.07282,0,0,0,200,289.88867l16,31.99951V360a7.96085,7.96085,0,0,0,1.34442,4.43707l-.00067.00043.01038.0155.023.03449,15.96667,23.95A7.99943,7.99943,0,0,0,240,392h32a7.99943,7.99943,0,0,0,6.65625-3.5625l15.96667-23.95.02295-.03449.01038-.0155-.00073-.00043A7.96,7.96,0,0,0,296,360ZM280,352H232V328h48Zm-35.87158-86.29932,7.43408,4.95557a7.99771,7.99771,0,0,0,8.875,0l7.43408-4.95557L257.58252,312h-3.1651ZM208,256a48,48,0,0,1,96,0,60.0862,60.0862,0,0,1-6.31055,26.7334L283.05566,312H273.9729l13.83667-62.26465a7.99978,7.99978,0,0,0-12.24707-8.3916L256,254.38525l-19.5625-13.0415a7.99978,7.99978,0,0,0-12.24707,8.3916L238.027,312h-9.0827l-14.63379-29.2666A60.0862,60.0862,0,0,1,208,256Zm59.71875,120h-23.4375l-5.33331-8H273.052Z"/><path d="M248,127.41943V160h16V127.41943a56,56,0,1,0-16,0ZM256,32a40,40,0,1,1-40,40A40.04521,40.04521,0,0,1,256,32Z"/><path d="M136,183.41943V224a7.99921,7.99921,0,0,0,3.3501,6.50977l16,11.42871,9.2998-13.01953L152,219.8833V183.41943a56,56,0,1,0-16,0ZM144,88a40,40,0,1,1-40,40A40.04521,40.04521,0,0,1,144,88Z"/><path d="M360,183.41943V219.8833L347.3501,228.919l9.2998,13.01953,16-11.42871A7.99921,7.99921,0,0,0,376,224V183.41943a56,56,0,1,0-16,0ZM368,88a40,40,0,1,1-40,40A40.04521,40.04521,0,0,1,368,88Z"/><path d="M248,96a7.97507,7.97507,0,0,0,5.65674-2.34326l32-32L274.34326,50.34326,248,76.68652,237.65674,66.34326,226.34326,77.65674l16,16A7.97507,7.97507,0,0,0,248,96Z"/><polygon points="133.657 149.657 144 139.313 154.343 149.657 165.657 138.343 155.313 128 165.657 117.657 154.343 106.343 144 116.687 133.657 106.343 122.343 117.657 132.687 128 122.343 138.343 133.657 149.657"/><polygon points="357.657 149.657 368 139.313 378.343 149.657 389.657 138.343 379.313 128 389.657 117.657 378.343 106.343 368 116.687 357.657 106.343 346.343 117.657 356.687 128 346.343 138.343 357.657 149.657"/><path d="M424,496V281.73291a17.73267,17.73267,0,0,0-33.876-7.33789l-30.46777,67.02881-13.76758-27.53467A17.88843,17.88843,0,0,0,312,321.88867V496h16V424h80v72Zm-96-88V321.88867a1.8885,1.8885,0,0,1,3.57764-.84472l21.26709,42.53369a7.9998,7.9998,0,0,0,14.438-.26709l37.40723-82.29493A1.7327,1.7327,0,0,1,408,281.73291V408Z"/><path d="M104,424h80v72h16V321.88867a17.88828,17.88828,0,0,0-33.88818-8l-13.76807,27.53516-30.46729-67.02832A17.73283,17.73283,0,0,0,88,281.73291V496h16Zm1.73291-144a1.73635,1.73635,0,0,1,1.57764,1.01611l37.40674,82.29444a7.9998,7.9998,0,0,0,14.438.26709l21.26758-42.53418A1.88835,1.88835,0,0,1,184,321.88867V408H104V281.73291A1.73482,1.73482,0,0,1,105.73291,280Z"/></svg>
