<svg id="filled_outline" height="512" viewBox="0 0 512 512" width="512" xmlns="http://www.w3.org/2000/svg" data-name="filled outline"><path d="m432 416v-232a16 16 0 0 0 -16-16h-320a16 16 0 0 0 -16 16v232z" fill="#4f5dff"/><path d="m488 416v24a15.9958 15.9958 0 0 1 -16 16h-432a15.99564 15.99564 0 0 1 -16-16v-24z" fill="#ffa100"/><path d="m136 344h40v40h-40z" fill="#f08000"/><path d="m176 320h40v64h-40z" fill="#f78e00"/><path d="m216 288h40v96h-40z" fill="#ffa100"/><path d="m256 256h40v128h-40z" fill="#ffb401"/><path d="m296 224h40v160h-40z" fill="#ffc431"/><path d="m336 200h40v184h-40z" fill="#ffd873"/><path d="m213.373 163.029h45.255v33.941h-45.255z" fill="#ffa100" transform="matrix(.707 -.707 .707 .707 -58.156 219.598)"/><path d="m248 208-87.72 87.72a28.28427 28.28427 0 1 1 -40-40l87.72-87.72z" fill="#db8638"/><path d="m199.029 171.716h33.941v56.569h-33.941z" fill="#ffc431" transform="matrix(.707 -.707 .707 .707 -78.156 211.314)"/><circle cx="296" cy="120" fill="#8be0e8" r="64"/><path d="m488 408h-48v-224a24.0275 24.0275 0 0 0 -24-24h-48v16h48a8.00917 8.00917 0 0 1 8 8v224h-336v-224a8.00917 8.00917 0 0 1 8-8h80v-16h-80a24.0275 24.0275 0 0 0 -24 24v224h-48a8.00039 8.00039 0 0 0 -8 8v24a24.0275 24.0275 0 0 0 24 24h432a24.0275 24.0275 0 0 0 24-24v-24a8.00039 8.00039 0 0 0 -8-8zm-8 32a8.00917 8.00917 0 0 1 -8 8h-432a8.00917 8.00917 0 0 1 -8-8v-16h164.68555l5.65722 5.65723a8.00235 8.00235 0 0 0 5.65723 2.34277h96a8.00235 8.00235 0 0 0 5.65723-2.34277l5.65722-5.65723h164.68555z"/><path d="m376 192h-40a8.00039 8.00039 0 0 0 -8 8v16h-32a8.00039 8.00039 0 0 0 -8 8v24h-32a8.00039 8.00039 0 0 0 -8 8v24h-32a8.00039 8.00039 0 0 0 -8 8v24h-32a8.00039 8.00039 0 0 0 -8 8v16h-32a8.00039 8.00039 0 0 0 -8 8v32h-24v16h304v-16h-24v-176a8.00039 8.00039 0 0 0 -8-8zm-232 160h24v24h-24zm40-24h24v48h-24zm40-32h24v80h-24zm40-32h24v112h-24zm40-32h24v144h-24zm40 144v-168h24v168z"/><path d="m296 48a71.95563 71.95563 0 0 0 -65.39185 102.07739l-14.60815 14.60816-2.34277-2.34278a8.003 8.003 0 0 0 -11.31446 0l-87.71577 87.71582a36.2848 36.2848 0 0 0 51.31446 51.31446l87.71582-87.71582a8.00122 8.00122 0 0 0 0-11.31446l-2.34283-2.34277 14.6084-14.60815a71.99023 71.99023 0 1 0 30.07715-137.39185zm-141.373 242.05859a20.28374 20.28374 0 1 1 -28.68554-28.68554l58.0581-58.05909 28.68644 28.68653zm69.37349-69.37259-28.68649-28.68649 12.686-12.68603 28.68652 28.68652zm15.99951-32.00045-12.68555-12.68555 11.86206-11.86206a72.60693 72.60693 0 0 0 12.68555 12.68555zm56-12.68555a56 56 0 1 1 56-56 56.0629 56.0629 0 0 1 -56 56z"/></svg>