<svg id="Capa_1" enable-background="new 0 0 497 497" height="512" viewBox="0 0 497 497" width="512" xmlns="http://www.w3.org/2000/svg"><path d="m489.066 33.773h-27.95c-14.776-27.441-46.408-33.773-70.778-33.773h-87.861c-9.909 0-18.324 8.109-18.138 18.016.18 9.608 8.024 17.34 17.675 17.34h30.691l-.042.528h-53.405c-9.909 0-18.324 8.109-18.138 18.016.18 9.608 8.024 17.34 17.675 17.34h51.05l-.126 1.583h-62.07c-9.909 0-18.324 8.109-18.138 18.016.18 9.608 8.024 17.34 17.675 17.34h59.714l-.126 1.583h-154.112c-9.909 0-18.324 8.109-18.138 18.016.18 9.607 8.024 17.34 17.675 17.34l181.921.528c15.758 0 28.902 11.259 31.799 26.201v40.882c0 9.909 8.109 18.324 18.016 18.138 9.608-.18 17.341-8.024 17.341-17.675v-46.108c0-2.268.941-4.434 2.6-5.981 1.389-1.296 3.19-2.038 5.085-2.18 19.566-1.463 34.987-17.802 34.987-37.743h25.12c4.382 0 7.934-3.552 7.934-7.934v-71.54c-.002-4.381-3.554-7.933-7.936-7.933z" fill="#ffd4a1"/><path d="m489.066 33.773h-27.95c-14.776-27.441-46.408-33.773-70.778-33.773h-33c24.37 0 56.002 6.332 70.778 33.773l2.83 87.407c0 19.941-15.42 36.28-34.987 37.743-1.895.142-3.696.883-5.085 2.18-1.658 1.547-2.6 3.713-2.6 5.981v46.108c0 2.15-.402 4.202-1.105 6.108 2.632 6.778 9.161 11.71 16.765 11.567 9.608-.18 17.341-8.024 17.341-17.675v-46.108c0-2.268.942-4.434 2.6-5.981 1.39-1.296 3.19-2.038 5.085-2.18 19.566-1.463 34.987-17.802 34.987-37.743h25.12c4.382 0 7.934-3.552 7.934-7.934v-71.54c-.001-4.381-3.553-7.933-7.935-7.933z" fill="#ffc183"/><path d="m7.637 463.227h28.247c14.776 27.441 46.408 33.773 70.778 33.773h87.861c9.909 0 18.324-8.109 18.138-18.016-.18-9.608-8.024-17.34-17.675-17.34h-30.691l.042-.528h53.404c9.909 0 18.324-8.109 18.138-18.016-.18-9.608-8.024-17.34-17.675-17.34h-51.05l.126-1.583h62.07c9.909 0 18.324-8.109 18.138-18.016-.18-9.608-8.024-17.34-17.675-17.34h-59.713l.126-1.583h154.112c9.909 0 18.324-8.109 18.138-18.016-.18-9.607-8.024-17.34-17.675-17.34l-181.921-.528c-15.758 0-28.902-11.259-31.799-26.201v-40.882c0-9.909-8.109-18.324-18.016-18.138-9.608.18-17.341 8.024-17.341 17.675v46.108c0 2.268-.941 4.434-2.6 5.981-1.39 1.296-3.19 2.038-5.085 2.18-19.566 1.463-34.987 17.802-34.987 37.743h-25.415c-4.218 0-7.637 3.419-7.637 7.637v72.133c0 4.218 3.419 7.637 7.637 7.637z" fill="#ffd4a1"/><g fill="#ffc183"><path d="m194.987 461.644h-30.691s15.186 7.733 15.366 17.34c.186 9.907-8.229 18.016-18.138 18.016h33c9.909 0 18.324-8.109 18.138-18.016-.18-9.607-8.025-17.34-17.675-17.34z"/><path d="m291.802 351.881c9.651 0 17.495 7.733 17.675 17.34.186 9.907-8.229 18.016-18.138 18.016h33c9.909 0 18.324-8.109 18.138-18.016-.18-9.608-8.024-17.34-17.675-17.34"/><path d="m229.815 388.821h-33c9.65 0 17.495 7.733 17.675 17.34.186 9.907-8.229 18.016-18.138 18.016h33c9.909 0 18.324-8.109 18.138-18.016-.18-9.607-8.024-17.34-17.675-17.34z"/><path d="m218.206 425.76h-33c9.651 0 17.495 7.733 17.675 17.34.186 9.907-8.229 18.015-18.138 18.016h32.999c9.909 0 18.324-8.109 18.138-18.016-.179-9.607-8.024-17.34-17.674-17.34z"/></g><path d="m248.5 294.396c-25.308 0-45.896-20.589-45.896-45.896s20.589-45.896 45.896-45.896 45.896 20.589 45.896 45.896-20.588 45.896-45.896 45.896zm0-76.792c-17.036 0-30.896 13.86-30.896 30.896s13.86 30.896 30.896 30.896 30.896-13.86 30.896-30.896-13.86-30.896-30.896-30.896z" fill="#d63be7"/><path d="m248.18 233.602c-4.143 0-7.5-3.358-7.5-7.5v-32.515c0-4.142 3.357-7.5 7.5-7.5s7.5 3.358 7.5 7.5v32.515c0 4.142-3.358 7.5-7.5 7.5z" fill="#fdd277"/><path d="m248.82 310.913c-4.143 0-7.5-3.358-7.5-7.5v-32.515c0-4.142 3.357-7.5 7.5-7.5s7.5 3.358 7.5 7.5v32.515c0 4.142-3.357 7.5-7.5 7.5z" fill="#fdd277"/><path d="m301.29 255.7h-29.793c-4.143 0-7.5-3.358-7.5-7.5s3.357-7.5 7.5-7.5h29.793c4.143 0 7.5 3.358 7.5 7.5s-3.357 7.5-7.5 7.5z" fill="#fdd277"/><path d="m225.503 256.3h-29.793c-4.143 0-7.5-3.358-7.5-7.5s3.357-7.5 7.5-7.5h29.793c4.143 0 7.5 3.358 7.5 7.5s-3.357 7.5-7.5 7.5z" fill="#fdd277"/><path d="m92.093 244.407c-4.143 0-7.5-3.358-7.5-7.5v-109.814c0-4.142 3.357-7.5 7.5-7.5h32.814c4.143 0 7.5 3.358 7.5 7.5s-3.357 7.5-7.5 7.5h-25.314v102.313c0 4.143-3.358 7.501-7.5 7.501z" fill="#7d2be6"/><path d="m404.907 378.407h-32.814c-4.143 0-7.5-3.358-7.5-7.5s3.357-7.5 7.5-7.5h25.314v-102.314c0-4.142 3.357-7.5 7.5-7.5s7.5 3.358 7.5 7.5v109.813c0 4.143-3.357 7.501-7.5 7.501z" fill="#7d2be6"/></svg>