<?xml version="1.0" encoding="iso-8859-1"?>
<!-- Generator: Adobe Illustrator 19.0.0, SVG Export Plug-In . SVG Version: 6.00 Build 0)  -->
<svg version="1.1" id="Layer_1" xmlns="http://www.w3.org/2000/svg" xmlns:xlink="http://www.w3.org/1999/xlink" x="0px" y="0px"
	 viewBox="0 0 512 512" style="enable-background:new 0 0 512 512;" xml:space="preserve">
<path style="fill:#E2E7F2;" d="M495.484,276.645H231.226c-9.122,0-16.516-7.395-16.516-16.516V45.419
	c0-9.122,7.395-16.516,16.516-16.516h264.258c9.122,0,16.516,7.395,16.516,16.516v214.71
	C512,269.251,504.605,276.645,495.484,276.645z"/>
<path style="fill:#E6AF78;" d="M295.392,227.521c-2.331-2.331-6.11-2.331-8.442,0L136.91,371.2
	c-3.069,2.916-7.142,4.542-11.375,4.542h-1.664c-9.121,0-16.516-7.395-16.516-16.516v-8.258H57.806v8.258
	c0,7.374-4.889,13.855-11.979,15.881l-27.859,7.96C7.333,386.105,0,395.826,0,406.888v67.951c0,4.56,3.697,8.258,8.258,8.258
	h115.613c4.561,0,8.258-3.698,8.258-8.258v-35.866c0-8.761,3.48-17.163,9.675-23.357L282.42,274.999
	c4.102-4.102,5.751-10.056,4.344-15.684l-2.945-11.78l11.573-11.573C297.723,233.632,297.723,229.852,295.392,227.521z"/>
<path style="fill:#D29B6E;" d="M82.581,375.742c10.14,0,19.708-2.352,28.294-6.434c-2.173-2.797-3.52-6.266-3.52-10.082v-8.258
	H57.806v8.258c0,3.764-1.298,7.273-3.488,10.097C62.896,373.396,72.453,375.742,82.581,375.742z"/>
<path style="fill:#5A4146;" d="M24.774,260.129v5.795c0,7.101,1.145,14.155,3.39,20.891l13.126,39.378h24.774v-90.839H49.548
	C35.866,235.355,24.774,246.447,24.774,260.129z"/>
<path style="fill:#694B4B;" d="M137.845,277.284l-13.974,48.91l-66.065-57.806c-9.122,0-16.516-7.395-16.516-16.516l0,0
	c0-13.682,11.092-24.774,24.774-24.774h57.806c9.122,0,16.516,7.395,16.516,16.516v15.522
	C140.387,265.273,139.532,271.381,137.845,277.284z"/>
<path style="fill:#F0C087;" d="M82.581,359.226L82.581,359.226c-27.365,0-49.548-22.184-49.548-49.548v-9.675
	c0-4.38,1.74-8.581,4.837-11.679l14.975-14.975c3.171-3.171,7.507-4.994,11.989-4.853c26.398,0.833,49.764,6.488,62.537,18.963
	c3.127,3.054,4.759,7.326,4.759,11.696v10.523C132.129,337.042,109.945,359.226,82.581,359.226z"/>
<path style="fill:#E6AF78;" d="M57.806,302.051c0-9.526,8-17.098,17.507-16.492c16.671,1.064,41.409,3.85,56.586,11.15
	c-0.495-3.484-1.992-6.773-4.529-9.251c-12.773-12.475-36.139-18.13-62.537-18.963h-0.001h-0.001
	c-4.481-0.141-8.818,1.683-11.988,4.853L37.87,288.324c-3.098,3.097-4.838,7.298-4.838,11.679v9.675
	c0,22.596,15.141,41.621,35.82,47.579c-6.883-8.492-11.045-19.272-11.045-31.063L57.806,302.051L57.806,302.051z"/>
<path style="fill:#B4E66E;" d="M250.155,262.748L136.91,371.2c-2.12,2.015-4.735,3.362-7.536,4.035
	c-8.098,16.341-24.9,27.603-44.374,27.603c-19.003,0-35.487-10.709-43.799-26.41l-23.232,6.638C7.333,386.105,0,395.826,0,406.888
	v67.951c0,4.56,3.697,8.258,8.258,8.258h115.613c4.561,0,8.258-3.698,8.258-8.258v-35.866c0-8.761,3.48-17.163,9.675-23.357
	l130.712-130.712L250.155,262.748z"/>
<g>
	<path style="fill:#A0D755;" d="M25.776,413.293L4.784,392.301C1.766,396.438,0,401.495,0,406.888v67.951
		c0,4.56,3.697,8.258,8.258,8.258h24.774v-52.286C33.032,424.24,30.422,417.939,25.776,413.293z"/>
	<path style="fill:#A0D755;" d="M250.155,262.748L139.977,368.303c-5.161,10.323-7.848,21.705-7.848,33.246v37.423
		c0-8.761,3.48-17.163,9.675-23.357l130.712-130.712L250.155,262.748z"/>
	<path style="fill:#A0D755;" d="M470.71,66.065h-41.29c-6.839,0-12.387,5.544-12.387,12.387s5.548,12.387,12.387,12.387h11.387
		l-73.323,73.323l-32.532-32.532c-4.839-4.839-12.677-4.839-17.516,0l-70.194,70.194c-4.839,4.835-4.839,12.681,0,17.516
		c2.419,2.419,5.589,3.629,8.758,3.629c3.169,0,6.339-1.21,8.758-3.629l61.435-61.435l32.532,32.532
		c4.839,4.839,12.677,4.839,17.516,0l82.081-82.081v11.387c0,6.843,5.548,12.387,12.387,12.387s12.387-5.544,12.387-12.387v-41.29
		C483.097,71.609,477.548,66.065,470.71,66.065z"/>
</g>
<g>
</g>
<g>
</g>
<g>
</g>
<g>
</g>
<g>
</g>
<g>
</g>
<g>
</g>
<g>
</g>
<g>
</g>
<g>
</g>
<g>
</g>
<g>
</g>
<g>
</g>
<g>
</g>
<g>
</g>
</svg>
