<svg id="filled_outline" height="512" viewBox="0 0 512 512" width="512" xmlns="http://www.w3.org/2000/svg" data-name="filled outline"><path d="m448 278.02a6.00748 6.00748 0 0 1 -1.16992 3.57l-46.3 62.83-45.12012 61.24a64.73258 64.73258 0 0 1 -81.07983 19.5l-58.33013-29.16v100h-144l5.93-8.9a68.05389 68.05389 0 0 0 -1.25-77.34 68.09618 68.09618 0 0 1 -12.68-39.58007v-21.67993a44.49567 44.49567 0 0 1 44.5-44.5h89.5c.76 0 1.52.03 2.27.08a31.991 31.991 0 0 1 15.95 5.61l95.78 66.31 48-64 14.55005-43.64a6.3644 6.3644 0 0 1 11.34-1.52l14.10995 21.16 38.15991-15.27a10.41628 10.41628 0 0 1 3.82009-.73 6.00908 6.00908 0 0 1 6.02 6.02z" fill="#ffa100"/><path d="m336 278.02a6.00748 6.00748 0 0 1 -1.16992 3.57l-46.3 62.83-45.12006 61.24a64.73274 64.73274 0 0 1 -81.07995 19.5l-66.33007-33.16 24-56 80 40 48-64 14.55005-43.64a6.3644 6.3644 0 0 1 11.34-1.52l14.10995 21.16 38.15991-15.27a10.41628 10.41628 0 0 1 3.82009-.73 6.00908 6.00908 0 0 1 6.02 6.02z" fill="#ffa100"/><g fill="#ffceb6"><path d="m336 278.02a6.00748 6.00748 0 0 1 -1.16992 3.57l-46.3 62.83-40.53008-32.42 14.55005-43.64a6.3644 6.3644 0 0 1 11.34-1.52l14.10995 21.16 38.15991-15.27a10.41628 10.41628 0 0 1 3.82009-.73 6.00908 6.00908 0 0 1 6.02 6.02z"/><path d="m448 278.02a6.00748 6.00748 0 0 1 -1.16992 3.57l-46.3 62.83-40.53008-32.42 14.55005-43.64a6.3644 6.3644 0 0 1 11.34-1.52l14.10995 21.16 38.15991-15.27a10.41628 10.41628 0 0 1 3.82009-.73 6.00908 6.00908 0 0 1 6.02 6.02z"/><path d="m184 304-24 48-24-48z"/></g><circle cx="136" cy="232" fill="#b66514" r="48"/><path d="m192 264v-24a32 32 0 0 0 -32-32 32 32 0 0 0 -32 32v24z" fill="#c47220"/><path d="m160 312a32 32 0 0 1 -32-32v-16l24-24a35.09935 35.09935 0 0 0 33.29816 24h6.70184v16a32 32 0 0 1 -32 32z" fill="#ffceb6"/><path d="m304 184h64v40h-64z" fill="#4f5dff"/><path d="m304 224 16 24h32l16-24z" fill="#4551f7"/><path d="m392 120a67.60414 67.60414 0 0 1 -7.15991 30.31l-16.84009 33.69h-64l-16.84-33.69a67.72325 67.72325 0 0 1 -7.16-30.31 56 56 0 1 1 112 0z" fill="#ffc431"/><path d="m376 185.88818 16-31.99951a76.16224 76.16224 0 0 0 8-33.88867 64 64 0 0 0 -128 0 76.16224 76.16224 0 0 0 8 33.88867l16 31.99951v38.11182a7.95976 7.95976 0 0 0 1.34448 4.437l-.00073.00049.01038.0155.02295.03455 15.96667 23.95a7.99943 7.99943 0 0 0 6.65625 3.56246h32a7.99943 7.99943 0 0 0 6.65625-3.5625l15.96667-23.94995.02295-.03455.01038-.0155-.00073-.00049a7.95976 7.95976 0 0 0 1.34448-4.43701zm-16 30.11182h-48v-24h48zm-35.87158-86.29932 7.43408 4.95557a7.99771 7.99771 0 0 0 8.875 0l7.43408-4.95557-10.28906 46.29932h-3.165zm-36.12842-9.70068a48 48 0 0 1 96 0 60.0862 60.0862 0 0 1 -6.31055 26.7334l-14.63379 29.2666h-9.08276l13.83667-62.26465a7.99978 7.99978 0 0 0 -12.24707-8.3916l-19.5625 13.0415-19.5625-13.0415a7.99978 7.99978 0 0 0 -12.24707 8.3916l13.83667 62.26465h-9.08276l-14.63379-29.2666a60.0862 60.0862 0 0 1 -6.31055-26.7334zm59.71875 120h-23.4375l-5.33325-8h34.104z"/><path d="m328 16h16v24h-16z"/><path d="m262.946 42.946h16v24h-16z" transform="matrix(.707 -.707 .707 .707 40.505 207.681)"/><path d="m232 112h24v16h-24z"/><path d="m416 112h24v16h-24z"/><path d="m389.054 46.946h24v16h-24z" transform="matrix(.707 -.707 .707 .707 78.613 299.681)"/><path d="m441.979 264a18.19593 18.19593 0 0 0 -6.78759 1.30713l-32.13575 12.85449-10.50878-15.76362a14.36958 14.36958 0 0 0 -25.5879 3.42773l-14.13769 42.41309-42.6001 56.7998-17.842-12.35229 48.88745-66.34741a14.02138 14.02138 0 0 0 -11.28764-22.33892 18.19593 18.19593 0 0 0 -6.78759 1.30713l-32.13575 12.85449-10.50878-15.76362a14.36958 14.36958 0 0 0 -25.5879 3.42773l-14.13769 42.41309-4.32135 5.76172-15.72748-10.88824a39.82139 39.82139 0 0 0 -22.76855-7.1123h-1.35382a39.76008 39.76008 0 0 0 3.34991-16v-40a39.8747 39.8747 0 0 0 -11.82336-28.36108 56.00507 56.00507 0 1 0 -67.75141 74.15844 39.654 39.654 0 0 0 2.92468 10.20264h-14.85137a52.558 52.558 0 0 0 -52.49854 52.49854v21.68066a75.667 75.667 0 0 0 14.17334 44.22705 60.40676 60.40676 0 0 1 1.10107 68.26025l-5.93066 8.8955 13.3125 8.876 5.93066-8.896a76.49087 76.49087 0 0 0 -1.394-86.43554 60.03452 60.03452 0 0 1 -8.20233-16.17493 53.07911 53.07911 0 0 0 10.03 6.52258l73.73142 36.86571a73.11192 73.11192 0 0 0 32.53218 7.68018 72.2678 72.2678 0 0 0 16.71582-1.96729v57.96729h16v-63.80994a73.05466 73.05466 0 0 0 18.97107-13.76049l27.78093 13.89025a72.74382 72.74382 0 0 0 91.09571-21.91211l91.41889-124.06884a14.02138 14.02138 0 0 0 -11.2876-22.33887zm-172.8955 10.04736 12.26025 18.39014a8.00063 8.00063 0 0 0 9.62744 2.99023l33.63867-13.45556-37.58227 51.00464-29.6742-23.73926zm-66.11231 69.38037a8.00014 8.00014 0 0 0 4.79-9.36816l-5.41248-21.65a23.877 23.877 0 0 1 9.31629 3.858l15.22784 10.54223-29.28684 39.04909-22.539-11.26953zm-42.97119-39.42773a24.02687 24.02687 0 0 1 -24-24v-12.68652l13.86328-13.8628a43.0395 43.0395 0 0 0 34.13672 18.52979v8.01953a24.02687 24.02687 0 0 1 -24 24zm7.405 15.30164-7.405 14.80969-7.405-14.80969a39.608 39.608 0 0 0 14.80994 0zm-23.97028 17.45593-13.9801-5.592 3.72815-14.91187zm47.11072-5.592-13.9801 5.592 10.25195-20.50391zm-6.54544-91.16557v15.94849a27.04773 27.04773 0 0 1 -24.41064-18.47828 7.9996 7.9996 0 0 0 -13.2461-3.127l-10.34326 10.34331v-4.68652a24 24 0 0 1 48 0zm-64 0v28.687a40.00878 40.00878 0 1 1 39.985-68.68664 40.04511 40.04511 0 0 0 -39.985 39.99964zm116.9668 160.9165a56.74482 56.74482 0 0 1 -71.05957 17.09278l-73.73145-36.86573a36.49841 36.49841 0 0 1 16.32276-69.14355h9.25512l-5.51489 22.05957a7.99865 7.99865 0 0 0 4.18488 9.09326l-.00129.00244 80 40a7.9974 7.9974 0 0 0 9.97754-2.35547l43.04755-57.39672 28.08136 22.46508zm112 0a56.74482 56.74482 0 0 1 -71.05957 17.09278l-24.59833-12.29907 29.57489-40.13733 24.5625 17.00476a7.9986 7.9986 0 0 0 10.95361-1.77784l43.04761-57.39672 28.0813 22.46508zm50.06079-67.93969-29.6742-23.73926 11.73011-35.19019 12.26025 18.39014a8.00006 8.00006 0 0 0 9.62744 2.99023l33.63867-13.45556z"/></svg>