<svg id="Layer_3" enable-background="new 0 0 64 64" height="512" viewBox="0 0 64 64" width="512" xmlns="http://www.w3.org/2000/svg"><g><path d="m4 8h40c1.105 0 2 .895 2 2v50c0 1.105-.895 2-2 2h-40c-1.105 0-2-.895-2-2v-50c0-1.105.895-2 2-2z" fill="#f7d881"/><g><path d="m6 12h36v46h-36z" fill="#ebf7fe"/></g><path d="m59 34c0-.784-.456-1.456-1.113-1.784.48-.556.641-1.352.338-2.075-.296-.707-.952-1.146-1.666-1.211.21-.685.053-1.459-.489-2.001-.555-.555-1.352-.707-2.049-.474-.054-.733-.503-1.409-1.228-1.707-.709-.291-1.483-.137-2.034.321-.335-.633-.993-1.069-1.759-1.069-.784 0-1.456.456-1.784 1.113-.556-.48-1.352-.641-2.075-.338-.707.296-1.146.952-1.211 1.666-.685-.21-1.459-.053-2.001.489-.555.555-.707 1.352-.474 2.049-.732.054-1.409.503-1.707 1.228-.291.709-.137 1.483.321 2.034-.633.335-1.069.992-1.069 1.759 0 .784.456 1.456 1.113 1.784-.48.556-.641 1.352-.338 2.075.296.707.952 1.146 1.666 1.211-.21.685-.053 1.459.489 2.001.555.555 1.352.707 2.049.474.054.732.503 1.409 1.228 1.707.709.291 1.483.137 2.034-.321.335.633.993 1.069 1.759 1.069.784 0 1.456-.456 1.784-1.113.556.48 1.352.641 2.075.338.707-.296 1.146-.952 1.211-1.666.685.21 1.459.053 2.001-.489.555-.555.707-1.352.474-2.049.732-.054 1.409-.503 1.707-1.228.291-.709.137-1.483-.321-2.034.633-.335 1.069-.993 1.069-1.759z" fill="#c16b3f"/><path d="m48.209 29.278c0-1.583-.452-3.057-1.223-4.315-.535-.348-1.213-.453-1.846-.189-.707.296-1.146.952-1.211 1.666-.685-.21-1.459-.053-2.001.489-.555.555-.707 1.352-.474 2.049-.732.054-1.409.503-1.707 1.228-.291.709-.137 1.483.321 2.034-.632.336-1.068.993-1.068 1.76 0 .784.456 1.456 1.113 1.784-.411.477-.568 1.128-.42 1.76.08.002.157.012.238.012 4.572 0 8.278-3.706 8.278-8.278z" fill="#e39854"/><circle cx="30" cy="25" fill="#c66b60" r="8"/><path d="m28.859 17.091c-3.876.555-6.859 3.879-6.859 7.909 0 2.739 1.378 5.154 3.477 6.596 3.129-1.655 5.263-4.94 5.263-8.726 0-2.161-.703-4.154-1.881-5.779z" fill="#e47c6e"/><g fill="#e39854"><path d="m49 44-3 12-3-6-7 2 5.929-10.929c.555.555 1.352.707 2.049.474.054.732.503 1.409 1.228 1.707.709.291 1.483.137 2.034-.321.336.633.994 1.069 1.76 1.069z"/><path d="m49 44 3 12 3-6 7 2-5.929-10.929c-.555.555-1.352.707-2.049.474-.054.732-.437 1.382-1.163 1.68-.709.291-1.525.12-2.075-.338-.336.633-1.018 1.113-1.784 1.113z"/><path d="m36 8c-2.842 0-5.498-1.356-7.215-3.621-1.096-1.445-2.831-2.379-4.785-2.379s-3.689.934-4.785 2.379c-1.717 2.265-4.373 3.621-7.215 3.621v4c0 1.105.895 2 2 2h20c1.105 0 2-.895 2-2z"/></g><g><path d="m16 34.999h-6c-.553 0-1-.447-1-1v-6c0-.553.447-1 1-1h6c.553 0 1 .447 1 1v6c0 .553-.448 1-1 1zm-5-2h4v-4h-4z" fill="#758190"/></g><g><path d="m16 43.999h-6c-.553 0-1-.447-1-1v-6c0-.553.447-1 1-1h6c.553 0 1 .447 1 1v6c0 .553-.448 1-1 1zm-5-2h4v-4h-4z" fill="#758190"/></g><g><path d="m16 52.999h-6c-.553 0-1-.447-1-1v-6c0-.553.447-1 1-1h6c.553 0 1 .447 1 1v6c0 .553-.448 1-1 1zm-5-2h4v-4h-4z" fill="#758190"/></g><g><path d="m13 33c-.066 0-.132-.007-.198-.02-.302-.061-.559-.258-.696-.533l-1-2 1.789-.894.427.854 6.028-5.166 1.301 1.518-7 6c-.183.156-.415.241-.651.241z" fill="#96cc7f"/></g><g><path d="m13 42c-.066 0-.132-.007-.198-.02-.302-.061-.559-.258-.696-.533l-1-2 1.789-.894.427.854 6.028-5.166 1.301 1.518-7 6c-.183.156-.415.241-.651.241z" fill="#96cc7f"/></g><g><path d="m13 51c-.066 0-.132-.007-.198-.02-.302-.061-.559-.258-.696-.533l-1-2 1.789-.894.427.854 6.028-5.166 1.301 1.518-7 6c-.183.156-.415.241-.651.241z" fill="#96cc7f"/></g><circle cx="49" cy="34" fill="#f2c351" r="6"/><g><path d="m53 34h-2c0-1.103-.897-2-2-2v-2c2.206 0 4 1.794 4 4z" fill="#f7d881"/></g><path d="m27 22c0 1.657 1.343 3 3 3s3-1.343 3-3v-1h-6z" fill="#d5cec2"/><path d="m27 28c0-1.657 1.343-3 3-3s3 1.343 3 3v1h-6z" fill="#f2c351"/><g><path d="m9 17h10v2h-10z" fill="#c1c8d1"/></g><g><path d="m9 21h6v2h-6z" fill="#c1c8d1"/></g><g><path d="m17 21h2v2h-2z" fill="#c1c8d1"/></g><g><path d="m24 36h11.479v1.913h-11.479z" fill="#c1c8d1"/></g><g><path d="m27.826 39.826h7.653v1.913h-7.653z" fill="#c1c8d1"/></g><g><path d="m24 39.826h1.913v1.913h-1.913z" fill="#c1c8d1"/></g><g><path d="m24 43.653h7.654v1.913h-7.654z" fill="#c1c8d1"/></g><g><path d="m34 44h2v2h-2z" fill="#c1c8d1"/></g><g><path d="m28 7.999h-2c0-1.103-.897-2-2-2v-1.999c2.206 0 4 1.793 4 3.999z" fill="#c16b3f"/></g><g><path d="m54.499 44.881h2v2.236h-2z" fill="#c16b3f" transform="matrix(.894 -.447 .447 .894 -14.712 29.676)"/></g><path d="m27 22c0 1.657 1.343 3 3 3 .177 0 .348-.023.516-.052.144-.67.223-1.365.223-2.078 0-.64-.066-1.264-.182-1.87h-3.557z" fill="#e7e4dd"/><path d="m30.49 25.049c-.16-.026-.322-.049-.49-.049-1.657 0-3 1.343-3 3v1h1.597c.905-1.14 1.562-2.482 1.893-3.951z" fill="#f7d881"/><path d="m43 34c0 .962.232 1.868.635 2.674 2.71-1.36 4.575-4.157 4.575-7.396 0-.41-.04-.811-.097-1.205-2.893.43-5.113 2.916-5.113 5.927z" fill="#f7d881"/></g></svg>