<svg id="Layer_1" enable-background="new 0 0 64 64" height="512" viewBox="0 0 64 64" width="512" xmlns="http://www.w3.org/2000/svg"><g><g><path d="m28 11c1.105 0 2 .895 2 2v11.5h-4v-11.5c0-1.105.895-2 2-2z" fill="#eec78e"/></g><g><path d="m40 43h-14v-13.5h16v11.5c0 1.105-.895 2-2 2z" fill="#db9e68"/></g><g><path d="m34 43h6v4h-6z" fill="#db9e68"/></g><g><path d="m20 24.5h24v2.5h-24z" fill="#fbd301"/></g><g><path d="m20 27h24v2.5h-24z" fill="#fbbe18"/></g><g><path d="m20 29.5h24v2.5h-24z" fill="#f68820"/></g><g><path d="m26 47h14v4h-14z" fill="#dbdee3"/></g><g><path d="m34 47h6v4h-6z" fill="#b3b4b6"/></g><g><path d="m42 63h-18v-11c0-.552.448-1 1-1h16c.552 0 1 .448 1 1z" fill="#6fa4d8"/></g><g><path d="m42 63h-8v-12h7c.552 0 1 .448 1 1z" fill="#5c76b2"/></g><g><circle cx="39" cy="55" fill="#fbbe18" r="1"/></g><g><path d="m32 34c-1.105 0-2-.895-2-2v-8c0-1.105.895-2 2-2 1.105 0 2 .895 2 2v8c0 1.105-.895 2-2 2z" fill="#eec78e"/></g><g><path d="m36 34c-1.105 0-2-.895-2-2v-8c0-1.105.895-2 2-2 1.105 0 2 .895 2 2v8c0 1.105-.895 2-2 2z" fill="#eec78e"/></g><g><path d="m40 34c-1.105 0-2-.895-2-2v-8c0-1.105.895-2 2-2 1.105 0 2 .895 2 2v8c0 1.105-.895 2-2 2z" fill="#eec78e"/></g><g><path d="m26 43v-13c0-1.657-1.343-3-3-3-.552 0-1 .448-1 1v11c0 2.209 1.791 4 4 4z" fill="#eec78e"/></g><g><path d="m22 29v2h2c0-1.105-.895-2-2-2z" fill="#db9e68"/></g><g><path d="m26 35v8h8c0-4.418-3.582-8-8-8z" fill="#eec78e"/></g><g><path d="m26 43h8v4h-8z" fill="#eec78e"/></g><g><circle cx="32" cy="32" fill="#db9e68" r="1"/></g><g><circle cx="36" cy="32" fill="#db9e68" r="1"/></g><g><circle cx="40" cy="32" fill="#db9e68" r="1"/></g><g><path d="m41.25 27.25h7.5v2h-7.5z" fill="#b3b4b6" transform="matrix(0 1 -1 0 73.25 -16.75)"/></g><g><path d="m43.125 25.375h3.75v2h-3.75z" fill="#dbdee3" transform="matrix(0 1 -1 0 71.375 -18.625)"/></g><g><path d="m50 30.125v-3.75c0-1.036-.839-1.875-1.875-1.875h-2.125v7.5h1.5.625c1.036 0 1.875-.839 1.875-1.875z" fill="#353744"/></g><g><path d="m50 28.25v-1.875c0-1.036-.839-1.875-1.875-1.875h-2.125v3.75z" fill="#55525b"/></g><g><path d="m20 24.5-6.606 3.303c-.369.184-.369.71 0 .894l6.606 3.303z" fill="#db9e68"/></g><g><path d="m13.394 27.803c-.184.092-.276.27-.276.447h6.882v-3.75z" fill="#eec78e"/></g><g><path d="m15 27-1.606.803c-.369.184-.369.71 0 .894l1.606.803z" fill="#353744"/></g><g><path d="m61 28.956h-5v-.749c0-.445-.539-.669-.854-.354l-2.793 2.793c-.195.195-.195.512 0 .707l2.793 2.793c.315.315.854.092.854-.353v-.793h5c.552 0 1-.448 1-1v-2.044c0-.552-.448-1-1-1z" fill="#6fa4d8"/></g><g><path d="m11.646 30.646-2.793-2.793c-.314-.314-.853-.091-.853.354v.749h-5c-.552 0-1 .448-1 1v2.044c0 .552.448 1 1 1h5v.793c0 .445.539.669.854.354l2.793-2.793c.195-.196.195-.512-.001-.708z" fill="#6fa4d8"/></g><g><path d="m51.061 9.049-3.536 3.536-.53-.53c-.315-.315-.854-.092-.854.354v3.95c0 .276.224.5.5.5h3.95c.445 0 .669-.539.354-.854l-.561-.561 3.536-3.536c.391-.391.391-1.024 0-1.414l-1.445-1.445c-.391-.391-1.024-.391-1.414 0z" fill="#6fa4d8"/></g><g><path d="m17.358 45.142h-3.95c-.445 0-.669.539-.354.854l.53.53-3.536 3.536c-.391.391-.391 1.024 0 1.414l1.445 1.445c.391.391 1.024.391 1.414 0l3.536-3.536.561.561c.315.315.854.092.854-.354v-3.95c0-.276-.224-.5-.5-.5z" fill="#6fa4d8"/></g><g><path d="m29.956 2v5h-.749c-.445 0-.669.539-.354.854l2.793 2.793c.195.195.512.195.707 0l2.793-2.793c.315-.315.092-.854-.353-.854h-.793v-5c0-.552-.448-1-1-1h-2.044c-.552 0-1 .448-1 1z" fill="#6fa4d8"/></g><g><path d="m10.049 11.939 3.536 3.536-.53.53c-.315.315-.092.854.354.854h3.95c.276 0 .5-.224.5-.5v-3.95c0-.445-.539-.669-.854-.354l-.561.561-3.536-3.536c-.391-.391-1.024-.391-1.414 0l-1.445 1.445c-.391.391-.391 1.024 0 1.414z" fill="#6fa4d8"/></g><g><path d="m46.142 45.642v3.95c0 .445.539.669.854.354l.53-.53 3.536 3.536c.391.391 1.024.391 1.414 0l1.445-1.445c.391-.391.391-1.024 0-1.414l-3.536-3.536.561-.561c.315-.315.092-.854-.354-.854h-3.95c-.276 0-.5.224-.5.5z" fill="#6fa4d8"/></g></g></svg>