<svg id="Layer_1" enable-background="new 0 0 511.923 511.923" height="512" viewBox="0 0 511.923 511.923" width="512" xmlns="http://www.w3.org/2000/svg"><g><g><g><path d="m461.879 192.708h18.654v46.795h-18.654z" fill="#3c5a73"/></g><path d="m510.923 181.889-8.218-29.102c-.778-2.754-3.641-4.356-6.395-3.578l-93.351 26.361c-3.701 1.045-5.014 5.617-2.431 8.467l22.676 25.019c1.321 1.458 3.354 2.042 5.248 1.507l78.893-22.278c2.753-.778 4.355-3.642 3.578-6.396z" fill="#87afb9"/><path d="m488.823 200.238-3.517-12.454c-.584-2.069-2.735-3.273-4.804-2.688l-27.082 7.647c-2.069.584-3.273 2.735-2.688 4.804l3.517 12.454c.584 2.069 2.735 3.273 4.804 2.688l27.082-7.647c2.069-.584 3.273-2.735 2.688-4.804z" fill="#46738c"/><path d="m494.207 165.914c-.72-2.549-3.37-4.032-5.919-3.312s-4.032 3.37-3.312 5.919 3.37 4.032 5.919 3.313c2.549-.72 4.032-3.37 3.312-5.92z" fill="#e64937"/><g><path d="m508.785 370.699v-24.675c0-4.276-3.466-7.742-7.742-7.742h-101.991l-25.533 5.883-19.877-5.883h-60.841l-25.956 3.798-19.454-3.798h-61.367l-25.096 3.23-20.314-3.23h-60.84l-25.519 3.988-19.891-3.988h-25.818c-4.276 0-7.742 3.466-7.742 7.742v24.675c0 4.276 3.466 7.742 7.742 7.742h8.622l25.53-3.582 19.88 3.582h60.841l27.848-3.771 17.562 3.771h61.367l24.766-3.961 20.643 3.961h60.841l25.705-5.098 19.705 5.098h119.188c4.275 0 7.741-3.466 7.741-7.742z" fill="#e64937"/><g fill="#fff"><path d="m17.168 378.441h45.41l17.197-40.159h-45.41z"/><path d="m123.418 378.441h45.41l17.197-40.159h-45.41z"/><path d="m230.195 378.441h45.41l17.197-40.159h-45.41z"/><path d="m336.445 378.441h45.41l17.197-40.159h-45.41z"/><path d="m483.607 378.441 16.887-39.437h-44.735l-16.887 39.437z"/></g></g><path d="m498.259 234.433h-51.264c-7.015 0-12.702 5.687-12.702 12.702v242.661h76.669v-242.66c-.001-7.016-5.688-12.703-12.703-12.703z" fill="#46738c"/><path d="m422.701 491.696v20.227h88.26v-29.22h-79.268c-4.966 0-8.992 4.026-8.992 8.993z" fill="#3c5a73"/></g><g><path d="m55.48 295.466v11.93l17.362 4.879 17.492-4.879v-11.93l-17.492-3.279z" fill="#fff"/><circle cx="146.9" cy="90.393" fill="#ffb69e" r="37.802"/><g id="XMLID_4737_"><g><path d="m174.331 511.845c-12.07 0-21.855-9.785-21.855-21.855v-174.95c0-12.07 9.785-21.855 21.855-21.855s21.855 9.785 21.855 21.855v174.95c.001 12.07-9.784 21.855-21.855 21.855z" fill="#1e2124"/></g></g><g id="XMLID_4736_"><path d="m121.43 511.845c-12.07 0-21.855-9.785-21.855-21.855v-174.95c0-12.07 9.785-21.855 21.855-21.855s21.855 9.785 21.855 21.855v174.95c.001 12.07-9.784 21.855-21.855 21.855z" fill="#373c41"/></g><path d="m147.828 314.147 8.926-81.654-8.926-89.279-26.065-3.05h-23.67c-23.235 0-42.496 18.903-42.612 42.138v113.162h34.854c0-.147 0-112.874 0-112.987.021-4.114 3.645-7.46 7.759-7.46h1.482v139.129h48.252z" fill="#0f1446"/><path d="m55.48 307.396c0 9.625 7.737 17.427 17.361 17.427s17.492-7.802 17.492-17.427z" fill="#ffb69e"/><path d="m239.957 295.466v11.93l-17.362 4.879-17.492-4.879v-11.93l17.492-3.279z" fill="#fff"/><path d="m147.609 314.147v-170.933l26.065-3.05h23.67c23.235 0 42.496 18.903 42.612 42.138v113.162h-34.854c0-.147 0-112.874 0-112.987-.021-4.114-3.645-7.46-7.759-7.46h-1.482v139.129h-48.252z" fill="#1e2d64"/><path d="m239.957 307.396c0 9.625-7.737 17.427-17.361 17.427-9.625 0-17.492-7.802-17.492-17.427z" fill="#ffb69e"/><g><g><path d="m200.929 40.639c0-9.534-6.183-19.981-16.538-27.946-10.642-8.185-23.956-12.693-37.491-12.693-13.528 0-26.84 4.508-37.484 12.692-10.359 7.967-16.543 18.414-16.543 27.947 0 11.012 7.109 16.875 16.876 19.997v7.114c.014 8.445 16.627 19.449 37.151 19.449s37.151-11.004 37.165-19.449v-7.119c9.762-3.123 16.864-8.984 16.864-19.992z" fill="#1e2d64"/></g><g><path d="m109.952 60.129c1.15-3.1 17.168-11.66 36.942-11.66 19.789 0 35.806 8.56 36.943 11.66l.222 7.621c-.014 8.445-16.641 19.449-37.165 19.449s-37.137-11.004-37.151-19.449v-7.621z" fill="#1e2124"/></g><path d="m146.901 34.031c-6.865 0-12.425 8.148-12.425 18.195 0 10.046 5.561 18.193 12.425 18.193s12.425-8.147 12.425-18.193c.001-10.047-5.56-18.195-12.425-18.195z" fill="#ffda52"/></g><path d="m121.763 140.165s5.879 35.122 18.926 45.049h14.06c13.047-9.927 18.926-45.049 18.926-45.049z" fill="#fff"/><g><g><path d="m154.791 140.165h-14.145c-1.778 0-3.121 1.613-2.798 3.361l2.329 12.616c.249 1.349 1.426 2.329 2.798 2.329h9.487c1.372 0 2.549-.979 2.798-2.329l2.329-12.616c.323-1.748-1.019-3.361-2.798-3.361z" fill="#1e2124"/></g><g><path d="m154.413 163.31c-.215-1.094-1.174-1.882-2.289-1.882h-8.811c-1.115 0-2.074.788-2.289 1.882l-2.298 11.68c-.061.307-.058.624.006.931l1.956 9.292c2.147 1.633 4.488 2.586 7.029 2.586s4.882-.952 7.03-2.586l1.956-9.292c.065-.307.067-.623.006-.931z" fill="#1e2124"/></g></g></g></g></svg>