<?xml version="1.0" encoding="iso-8859-1"?>
<!-- Generator: Adobe Illustrator 19.0.0, SVG Export Plug-In . SVG Version: 6.00 Build 0)  -->
<svg version="1.1" id="Layer_1" xmlns="http://www.w3.org/2000/svg" xmlns:xlink="http://www.w3.org/1999/xlink" x="0px" y="0px"
	 viewBox="0 0 512 512" style="enable-background:new 0 0 512 512;" xml:space="preserve">
<path style="fill:#E2E7F2;" d="M495.484,276.645H231.226c-9.122,0-16.516-7.395-16.516-16.516V45.419
	c0-9.122,7.395-16.516,16.516-16.516h264.258c9.122,0,16.516,7.395,16.516,16.516v214.71
	C512,269.251,504.605,276.645,495.484,276.645z"/>
<path style="fill:#5A4146;" d="M147.477,352.479c-7.057-18.698-12.654-50.841-13.863-67.576
	c-2.3-31.846-26.299-57.806-58.741-57.806s-56.441,25.961-58.741,57.806c-1.209,16.734-6.806,48.878-13.863,67.576
	c-1.555,4.122,0.24,8.667,4.299,10.507c7.562,3.427,23.685,10.141,43.13,12.756h50.349c19.354-2.621,35.59-9.339,43.13-12.756
	C147.237,361.146,149.033,356.601,147.477,352.479z"/>
<path style="fill:#694B4B;" d="M143.179,362.986c4.058-1.84,5.854-6.385,4.298-10.507c-7.056-18.698-12.654-50.841-13.862-67.576
	c-2.299-31.846-26.299-57.806-58.74-57.806c-0.082,0-0.163,0-0.245,0.001c-24.893,0.101-33.69,34.05-12.261,46.717
	c1.287,0.761,2.112,1.127,2.112,1.127l18.769,100.8h16.799C119.403,373.12,135.639,366.403,143.179,362.986z"/>
<path style="fill:#E6AF78;" d="M278.876,235.779c-2.331-2.331-6.11-2.331-8.442,0L128.652,371.2
	c-3.069,2.916-7.142,4.542-11.375,4.542h-1.664c-9.121,0-16.516-7.395-16.516-16.516V342.71H49.548v16.516
	c0,6.256-3.534,11.975-9.13,14.772L13.695,387.36C5.302,391.557,0,400.135,0,409.519v65.32c0,4.56,3.697,8.258,8.258,8.258h99.097
	c4.561,0,8.258-3.698,8.258-8.258v-27.608c0-8.761,3.48-17.163,9.675-23.357l140.616-140.616c4.102-4.102,5.752-10.056,4.344-15.684
	l-2.945-11.78l11.573-11.573C281.207,241.89,281.207,238.11,278.876,235.779z"/>
<path style="fill:#FFF082;" d="M233.702,270.863L128.652,371.2c-3.069,2.916-7.142,4.542-11.375,4.542h-1.664
	c-1.132,0-2.237-0.116-3.305-0.333c-6.296,14.758-20.927,25.107-37.985,25.107c-16.856,0-31.301-10.133-37.716-24.612L13.695,387.36
	C5.302,391.557,0,400.135,0,409.519v65.32c0,4.56,3.697,8.258,8.258,8.258h99.097c4.561,0,8.258-3.698,8.258-8.258v-27.608
	c0-8.761,3.48-17.163,9.675-23.357L256,293.161L233.702,270.863z"/>
<path style="fill:#D29B6E;" d="M74.323,372.129c9.451,0,18.42-2.019,26.55-5.594c-1.1-2.212-1.776-4.671-1.776-7.309V342.71H49.548
	v16.516c0,2.595-0.733,5.036-1.844,7.277C55.852,370.097,64.844,372.129,74.323,372.129z"/>
<path style="fill:#F0C087;" d="M73.978,355.927L73.978,355.927c-25.192,0-45.992-18.8-49.137-43.135
	c-0.456-3.526,1.239-6.983,4.413-8.584c3.802-1.918,9.327-5.152,14.617-9.872c5.891-5.256,9.347-10.799,11.299-14.868
	c1.681-3.504,5.545-5.486,9.311-4.525c29.076,7.416,48.871,22.543,56.053,28.719c1.928,1.658,3.039,4.103,2.841,6.639
	C121.375,335.831,100.023,355.927,73.978,355.927z"/>
<path style="fill:#E6AF78;" d="M120.533,303.661c-7.181-6.176-26.977-21.303-56.053-28.719c-3.766-0.961-7.63,1.021-9.311,4.525
	c-1.478,3.082-3.921,7.008-7.546,11.016c-0.001,0.01-0.004,0.018-0.005,0.028c-1.125,1.275-2.323,2.553-3.747,3.825
	c-5.29,4.721-10.815,7.954-14.617,9.872c-3.174,1.601-4.868,5.059-4.413,8.585c2.825,21.855,19.927,39.12,41.625,42.438
	c-9.887-6.726-17.262-15.845-17.262-32.335V311.12c1.876-1.385,3.765-2.766,5.663-4.46c4.59-4.096,8.597-8.833,11.81-13.933
	c22.243,6.941,37.323,18.502,43.04,23.418c1.565,1.372,5.449,4.952,9.993,9.215c1.955-4.705,3.248-9.753,3.663-15.058
	C123.573,307.764,122.462,305.319,120.533,303.661z"/>
<path style="fill:#FFDC64;" d="M33.032,438.973c0-8.761-3.48-17.163-9.675-23.357L3.924,396.182C1.421,400.095,0,404.694,0,409.519
	v65.32c0,4.561,3.697,8.258,8.258,8.258h24.774V438.973z"/>
<circle style="fill:#FF507D;" cx="363.36" cy="161.03" r="74.32"/>
<circle style="fill:#FFFFFF;" cx="363.36" cy="161.03" r="49.548"/>
<path style="fill:#FFDC64;" d="M256,293.161l-22.298-22.298c0,0-66.837,63.837-93.894,89.679
	c-7.383,7.051-13.304,15.469-17.451,24.798l0,0c-4.447,10.006-6.745,20.833-6.745,31.782v30.108c0-8.761,3.48-17.163,9.675-23.357
	L256,293.161z"/>
<circle style="fill:#FF507D;" cx="363.36" cy="161.03" r="24.774"/>
<path style="fill:#959CB5;" d="M363.355,169.29c-2.113,0-4.226-0.806-5.839-2.419c-3.226-3.226-3.226-8.452,0-11.677l90.839-90.839
	c3.226-3.226,8.452-3.226,11.677,0c3.226,3.226,3.226,8.452,0,11.677l-90.839,90.839C367.581,168.484,365.468,169.29,363.355,169.29
	z"/>
<path style="fill:#D23C69;" d="M456.86,84.043h-16.516V67.527c0-4.56-3.694-8.258-8.258-8.258s-8.258,3.698-8.258,8.258
	c-4.565,0-8.258,3.698-8.258,8.258v24.774c0,4.56,3.694,8.258,8.258,8.258h24.774c4.565,0,8.258-3.698,8.258-8.258
	c4.565,0,8.258-3.698,8.258-8.258C465.118,87.741,461.425,84.043,456.86,84.043z"/>
<path style="fill:#5B5D6E;" d="M460.032,64.355c-3.226-3.226-8.452-3.226-11.677,0L386.42,126.29c-3.226,3.226-3.226,8.452,0,11.677
	c1.613,1.613,3.726,2.419,5.839,2.419c2.113,0,4.226-0.806,5.839-2.419l61.935-61.935C463.258,72.806,463.258,67.581,460.032,64.355
	z"/>
<g>
</g>
<g>
</g>
<g>
</g>
<g>
</g>
<g>
</g>
<g>
</g>
<g>
</g>
<g>
</g>
<g>
</g>
<g>
</g>
<g>
</g>
<g>
</g>
<g>
</g>
<g>
</g>
<g>
</g>
</svg>
