<svg height="512" viewBox="0 0 512 512" width="512" xmlns="http://www.w3.org/2000/svg"><g id="Flat"><path d="m408 56v152.16992a120.01164 120.01164 0 0 1 -42.69995 91.79l-.20007.16992-109.09998 91.87016-109.1-91.87012-.2-.16992a120.0115 120.0115 0 0 1 -42.7-91.79v-152.16996a227.66757 227.66757 0 0 0 28.3 1.76 228.269 228.269 0 0 0 94.42-20.44995l29.28-13.31005 29.28 13.31006a228.20346 228.20346 0 0 0 122.72 18.68994z" fill="#d4e4f0"/><path d="m408 96v112.16992a120.01164 120.01164 0 0 1 -42.69995 91.79l-.20007.16992 1.97009-14.42984-41.04-41.04 21.11993-73.94 32-8 11.18006-39.11011 7.89994-27.60989z" fill="#c1d7e6"/><path d="m144.93 285.7 1.97 14.42993-.2-.16992a120.0115 120.0115 0 0 1 -42.7-91.79v-112.17001h9.77l7.9 27.6001 11.18 39.1199 32 8 21.12 73.93994z" fill="#c1d7e6"/><path d="m376 89.74v118.42992a87.65784 87.65784 0 0 1 -25.02 61.43994 83.55326 83.55326 0 0 1 -6.3 5.87012l-88.68 74.68994-88.68-74.68992a83.56389 83.56389 0 0 1 -6.3-5.87012 87.65784 87.65784 0 0 1 -25.02-61.43996v-118.42992a258.23468 258.23468 0 0 0 103.96-23.3l16.04-7.29 16.04 7.29a258.23373 258.23373 0 0 0 103.96 23.3z" fill="#65dafc"/><path d="m376 163.51v44.65991a87.65784 87.65784 0 0 1 -25.02 61.43994l-24.94995-24.95 21.11995-73.93985z" fill="#57bffb"/><path d="m185.97 244.65991-24.94995 24.95a87.65784 87.65784 0 0 1 -25.02005-61.43999v-44.65992l28.85 7.21z" fill="#57bffb"/><path d="m168 240-40 40h-72l-32-40 16-56 32-8h48l32 8z" fill="#529ddf"/><path d="m56 152 8 8v16h8v8l5.33 8 10.67 16 32-32-16-56h-40v16z" fill="#fdc5ca"/><path d="m64 128h42.28573l-4.57142-16h-53.71431a16 16 0 0 0 16 16z" fill="#ba8b5d"/><path d="m80 196v60h16v-56l-8 8z" fill="#4384c3"/><path d="m152 456h-32l-32-104-24 104h-32l24-176h72z" fill="#68737f"/><path d="m120 488h40l-8-32h-32z" fill="#4f5761"/><path d="m64 488h-40l8-32h32z" fill="#4f5761"/><path d="m72 176v8l5.33 8h9.3l12.68-12.69-11.31-11.31-8 8z" fill="#fc979e"/><path d="m144 224v40l-16 16v-56z" fill="#4384c3"/><path d="m56 224v56l-16-20v-36z" fill="#4384c3"/><path d="m104 336v68l-16-52v-32a16 16 0 0 1 16 16z" fill="#4f5761"/><path d="m344 240 40 40h72l32-40-16-56-32-8h-48l-32 8z" fill="#529ddf"/><path d="m456 152-8 8v16h-8v8l-5.33 8-10.67 16-32-32 16-56h40v16z" fill="#fdc5ca"/><path d="m448 128h-42.28571l4.57142-16h53.71429a16 16 0 0 1 -16 16z" fill="#ba8b5d"/><path d="m432 196v60h-16v-56l8 8z" fill="#4384c3"/><path d="m360 456h32l32-104 24 104h32l-24-176h-72z" fill="#68737f"/><path d="m392 488h-40l8-32h32z" fill="#4f5761"/><path d="m448 488h40l-8-32h-32z" fill="#4f5761"/><path d="m440 176v8l-5.33 8h-9.3l-12.68-12.69 11.31-11.31 8 8z" fill="#fc979e"/><path d="m368 224v40l16 16v-56z" fill="#4384c3"/><path d="m456 224v56l16-20v-36z" fill="#4384c3"/><path d="m408 336v68l16-52v-32a16 16 0 0 0 -16 16z" fill="#4f5761"/></g></svg>