<svg id="Layer_2" enable-background="new 0 0 512 512" height="512" viewBox="0 0 512 512" width="512" xmlns="http://www.w3.org/2000/svg"><g><g><path d="m288.68 201.021v18.568l-32.68 41.593-32.68-41.593v-18.568z" fill="#ffd3b3"/></g><g><path d="m223.32 214.39c10.026 4.346 21.075 7.288 32.68 7.288s22.654-2.942 32.68-7.288v-13.369h-65.36z" fill="#fcb98b"/></g><g><path d="m323.588 87.244v55.101c0 37.328-30.26 67.588-67.588 67.588-37.328 0-67.588-30.26-67.588-67.588v-55.101z" fill="#ffd3b3"/></g><g><path d="m323.59 87.24v55.11c0 17.04-6.31 32.61-16.73 44.5-12.38 14.15-30.58 23.08-50.86 23.08-18.66 0-35.56-7.57-47.79-19.79-1.06-1.06-2.09-2.16-3.07-3.29-10.42-11.89-16.73-27.46-16.73-44.5v-55.11z" fill="#ffd3b3"/></g><g><path d="m323.59 98.34v44.01c0 17.04-6.31 32.61-16.73 44.5-3.22-1.83-6.11-4.24-8.53-7.18l-.24-.3-.24-.34h-7.78c-3.44 0-6.78-1.42-9.17-3.89-2.39-2.46-3.64-5.7-3.53-9.1.29-8.88 7.48-15.83 16.36-15.83h10.48l3.94-7.88-2.29-9.65c-.3-1.24-1.2-2.23-2.42-2.63l-13.49-4.5c-.33-.11-.66-.17-1.01-.17-.57 0-1.13.16-1.62.45-2.53 1.52-5.43 2.32-8.37 2.32-4.74 0-9.16-2.06-12.12-5.65-2.8-3.39-4.06-7.83-3.46-12.19.6-4.35 3.02-8.29 6.64-10.79l5.22-3.62c3.33-2.3 7.23-3.52 11.27-3.52h18.96c5.36 0 10.63 1.46 15.23 4.22z" fill="#fcb98b"/></g><g><path d="m245.17 122.5c-2.96 3.59-7.38 5.65-12.12 5.65-2.94 0-5.84-.8-8.36-2.31-.5-.3-1.06-.46-1.63-.46-.35 0-.68.06-1.01.17l-13.49 4.5c-1.22.4-2.12 1.39-2.42 2.63l-2.29 9.65 3.94 7.88h10.48c8.88 0 16.07 6.95 16.36 15.83.11 3.4-1.14 6.64-3.53 9.1-2.39 2.47-5.73 3.89-9.17 3.89h-7.78l-.24.34-.24.3c-2.42 2.94-5.31 5.35-8.53 7.18-10.42-11.89-16.73-27.46-16.73-44.5v-44.01l2.9-1.74c4.6-2.76 9.87-4.22 15.23-4.22h18.96c4.04 0 7.94 1.22 11.27 3.52l5.22 3.62c3.62 2.5 6.04 6.44 6.64 10.79.6 4.36-.66 8.8-3.46 12.19z" fill="#fcb98b"/></g><g><g><g><path d="m188.412 135.521 15.597-48.277h-15.597z" fill="#466089"/></g></g><g><g><path d="m307.991 87.244 15.597 48.277v-48.277z" fill="#466089"/></g></g></g><g><path d="m180.586 132.55h7.825v-36.394h-7.825c-5.523 0-10 4.477-10 10v16.394c0 5.523 4.477 10 10 10z" fill="#ffd3b3"/></g><g><path d="m331.414 132.55h-7.825v-36.394h7.825c5.523 0 10 4.477 10 10v16.394c0 5.523-4.477 10-10 10z" fill="#ffd3b3"/></g><g><g><path d="m256 103.725h66.862l33.406-40.249-34.908-36.393-65.36-17.083-65.36 17.083-34.908 36.393 33.406 40.249z" fill="#466089"/></g><g><path d="m256 10-65.36 17.083 30.706 76.642h34.654 34.654l30.706-76.642z" fill="#6e83b7"/></g><g><path d="m188.412 115.467s6.434 8.17 67.588 8.17 67.588-8.17 67.588-8.17v-11.884h-135.176z" fill="#6e83b7"/></g><g><path d="m256 104.327c-41.992 0-67.588 11.884-67.588 11.884v-22.283s25.596-11.884 67.588-11.884 67.588 11.884 67.588 11.884v22.282s-25.596-11.883-67.588-11.883z" fill="#466089"/></g><g><path d="m323.588 96.156h4.456v15.597h-4.456z" fill="#ffe352"/></g><g><path d="m183.955 96.156h4.456v15.597h-4.456z" fill="#ffe352"/></g></g><g><path d="m256 82.045s23.025-3.714 23.025-22.282c0-3.714-3.714-8.17-3.714-14.112 0-2.751 1.458-9.05 6.685-12.626l-4.456-8.17c-11.885 4.456-21.54-2.229-21.54-2.229s-9.655 6.685-21.539 2.228l-4.456 8.17c5.227 3.576 6.685 9.876 6.685 12.626 0 5.942-3.714 10.398-3.714 14.112-.001 18.569 23.024 22.283 23.024 22.283z" fill="#ffe352"/></g><g><g><path d="m482.8 226.867-107.613-78.2-33.593 47.069 76.12 52.679-114.179-17.825h-23.499l-24.036 30.592-24.036-30.591h-23.499l-114.178 17.824 76.12-52.679-33.593-47.069-107.614 78.2c-12.062 8.766-19.2 22.776-19.2 37.687 0 25.729 20.857 46.586 46.586 46.586h88.004v190.86h222.819v-190.86h88.004c25.729 0 46.586-20.857 46.586-46.586.001-14.911-7.137-28.921-19.199-37.687z" fill="#6e83b7"/></g><g><path d="m275.699 107.744 5.226-3.618c1.639-1.135 3.585-1.743 5.579-1.743h18.952c3.553 0 7.038.966 10.085 2.793l11.861 7.117c2.04 1.224 3.839 2.808 5.311 4.677l22.5 29.517-22.164 32.343-7.212 1.632c-7.406 1.411-14.992-1.331-19.785-7.151l-3.008-4.282h-12.97c-1.477 0-2.756-1.185-2.708-2.661.111-3.421 2.919-6.16 6.367-6.16h16.661l8.331-16.661-3.138-13.18c-1.096-4.602-4.492-8.312-8.981-9.808l-13.498-4.499c-3.647-1.216-7.643-.777-10.94 1.201-2.485 1.491-5.783 1.111-7.628-1.124-2.153-2.609-1.602-6.482 1.159-8.393z" fill="#ffd3b3"/></g><g><path d="m329.874 183.481 14.009 9.048 29.286-41.036-14.61-9.888z" fill="#edeff1"/></g><g><circle cx="363.809" cy="192.685" fill="#ffe352" r="7.841"/></g><g><path d="m236.301 107.744-5.226-3.618c-1.639-1.135-3.585-1.743-5.579-1.743h-18.952c-3.553 0-7.038.966-10.085 2.793l-11.861 7.117c-2.04 1.224-3.839 2.808-5.311 4.677l-22.502 29.517 22.181 32.343 7.198 1.632c7.406 1.411 14.992-1.331 19.785-7.151l3.008-4.282h12.97c1.477 0 2.756-1.185 2.708-2.661-.111-3.421-2.919-6.16-6.367-6.16h-16.661l-8.331-16.661 3.138-13.18c1.096-4.602 4.492-8.312 8.981-9.808l13.498-4.499c3.647-1.216 7.643-.777 10.94 1.201 2.485 1.491 5.783 1.111 7.628-1.124 2.152-2.609 1.601-6.482-1.16-8.393z" fill="#ffd3b3"/></g><g><path d="m182.126 183.481-14.009 9.048-29.286-41.036 14.61-9.888z" fill="#edeff1"/></g><g><circle cx="148.191" cy="192.685" fill="#ffe352" r="7.841"/></g><g><g><path d="m256 119.045h-24.502v24.502h15.681l8.821-5.881 8.821 5.881h15.681v-24.502z" fill="#466089"/></g><g><circle cx="291.283" cy="143.547" fill="#6e83b7" r="29.402"/></g><g><circle cx="291.283" cy="143.547" fill="#80d6fb" r="21.562"/></g><g><circle cx="256" cy="123.945" fill="#6e83b7" r="6.861"/></g><g><circle cx="220.717" cy="143.547" fill="#6e83b7" r="29.402"/></g><g><circle cx="220.717" cy="143.547" fill="#80d6fb" r="21.562"/></g></g></g><path d="m292 304.814 19.658-72.956-8.123-1.268h-23.499l-24.036 30.592-24.036-30.592h-23.499l-7.032 1.098 19.471 73.175 22.62-21.543 5.791 13.513-8.17 165.167 14.855 10 14.855-10-8.17-165.167 5.91-13.791z" fill="#466089"/><g><path d="m223.32 219.589-14.855 11.001 16.34 60.301 31.195-29.709z" fill="#6e83b7"/></g><g><path d="m288.68 219.589 14.855 11.001-16.34 60.301-31.195-29.709z" fill="#6e83b7"/></g><g><path d="m288.68 344.427h44.563v10h-44.563z" fill="#466089"/></g><g><path d="m178.756 344.427h44.563v10h-44.563z" fill="#466089"/></g></g></svg>