<svg id="Capa_1" enable-background="new 0 0 511.683 511.683" height="512" viewBox="0 0 511.683 511.683" width="512" xmlns="http://www.w3.org/2000/svg"><g><path d="m315.841 330.683h-120-90c-41.422 0-75 33.578-75 75v91c0 8.284 6.716 15 15 15h150 150z" fill="#7ed8f6"/><path d="m315.841 330.683h-120v181h150z" fill="#6aa9ff"/><path d="m328.996 38.461c-2.021-3.662-5.464-6.313-9.521-7.324l-120-31c-1.187-.308-2.41 0-3.633 0s-2.446-.308-3.633 0l-120 31c-4.058 1.011-7.5 3.662-9.521 7.324-2.007 3.662-2.402 7.998-1.069 11.968l29.224 100.254 42.501 30h62.499 74.376l30.624-30 29.224-100.254c1.331-3.97.935-8.306-1.071-11.968z" fill="#7ed8f6"/><path d="m300.841 150.683 29.224-100.254c1.333-3.97.938-8.306-1.069-11.968-2.021-3.662-5.464-6.313-9.521-7.324l-120-31c-1.187-.308-2.41 0-3.633 0v180.546h74.376z" fill="#6aa9ff"/><path d="m300.841 150.683h-105-105c-16.569 0-30 13.431-30 30s13.431 30 30 30h1.273c-5.264 38.459 9.91 76.058 40.754 99.126 11.25 8.423 17.974 21.826 17.974 35.874 0 3.984 1.582 7.793 4.395 10.605l30 30c2.93 2.93 6.768 4.395 10.605 4.395s7.676-1.465 10.605-4.395l30-30c2.992-2.992 4.411-6.925 4.349-10.844.736-3.003-.745-21.702 17.785-35.446 31.307-23.286 45.912-60.994 40.789-99.316h1.472c16.569 0 30-13.431 30-30s-13.431-29.999-30.001-29.999z" fill="#ffe1ba"/><path d="m236.447 356.288c2.992-2.992 4.411-6.925 4.349-10.844.736-3.003-.745-21.702 17.785-35.446 31.307-23.286 45.912-60.994 40.789-99.316h1.472c16.569 0 30-13.431 30-30s-13.431-30-30-30h-105v240c3.838 0 7.676-1.465 10.605-4.395z" fill="#ffbfab"/><path d="m135.841 450.683h-30c-8.291 0-15-6.709-15-15s6.709-15 15-15h30c8.291 0 15 6.709 15 15s-6.709 15-15 15z" fill="#fff5f5"/><g><path d="m225.841 60.683h-30-30c-8.291 0-15 6.709-15 15s6.709 15 15 15h30 30c8.291 0 15-6.709 15-15s-6.709-15-15-15z" fill="#fed843"/><path d="m240.841 75.683c0-8.291-6.709-15-15-15h-30v30h30c8.291 0 15-6.709 15-15z" fill="#ffb64c"/><path d="m195.841 150.683h-105c0 33.137 26.863 60 60 60h45 45c33.137 0 60-26.863 60-60z" fill="#704c55"/><path d="m300.841 150.683h-105v60h45c33.137 0 60-26.864 60-60z" fill="#5a344b"/></g><path d="m360.841 360.683c-8.291 0-15-6.709-15-15v-150c0-8.291 6.709-15 15-15s15 6.709 15 15v150c0 8.291-6.709 15-15 15z" fill="#efe2dd"/><path d="m420.841 360.683c-8.291 0-15-6.709-15-15v-30c0-8.291 6.709-15 15-15s15 6.709 15 15v30c0 8.291-6.709 15-15 15z" fill="#e1d3ce"/><path d="m465.841 330.683h-75-75c-8.291 0-15 6.709-15 15v90c0 3.984 1.582 7.793 4.395 10.605l25.605 25.605v24.789c0 8.291 6.709 15 15 15h45 45c8.291 0 15-6.709 15-15v-24.789l25.605-25.605c2.813-2.813 4.395-6.621 4.395-10.605v-90c0-8.291-6.709-15-15-15z" fill="#704c55"/><path d="m450.841 496.683v-24.789l25.605-25.605c2.813-2.813 4.395-6.621 4.395-10.605v-90c0-8.291-6.709-15-15-15h-75v181h45c8.291-.001 15-6.71 15-15.001z" fill="#5a344b"/><path d="m405.841 390.683h-15-15c-8.401 0-15 6.599-15 15s6.599 15 15 15h15 15c8.401 0 15-6.599 15-15s-6.599-15-15-15z" fill="#fff5f5"/><path d="m420.841 405.683c0 8.401-6.599 15-15 15h-15v-30h15c8.401 0 15 6.599 15 15z" fill="#efe2dd"/></g></svg>