<?xml version="1.0" standalone="no"?>
<svg xmlns:xlink="http://www.w3.org/1999/xlink" id="wave" style="transform:rotate(0deg); transition: 0.3s" viewBox="0 0 1440 490" version="1.1" xmlns="http://www.w3.org/2000/svg"><defs><linearGradient id="sw-gradient-0" x1="0" x2="0" y1="1" y2="0"><stop stop-color="rgba(41, 50, 60, 1)" offset="0%"/><stop stop-color="rgba(73, 109, 150, 1)" offset="100%"/></linearGradient></defs><path style="transform:translate(0, 0px); opacity:1" fill="url(#sw-gradient-0)" d="M0,441L40,383.8C80,327,160,212,240,187.8C320,163,400,229,480,261.3C560,294,640,294,720,294C800,294,880,294,960,253.2C1040,212,1120,131,1200,114.3C1280,98,1360,147,1440,179.7C1520,212,1600,229,1680,196C1760,163,1840,82,1920,65.3C2000,49,2080,98,2160,106.2C2240,114,2320,82,2400,106.2C2480,131,2560,212,2640,253.2C2720,294,2800,294,2880,294C2960,294,3040,294,3120,302.2C3200,310,3280,327,3360,326.7C3440,327,3520,310,3600,310.3C3680,310,3760,327,3840,334.8C3920,343,4000,343,4080,285.8C4160,229,4240,114,4320,106.2C4400,98,4480,196,4560,253.2C4640,310,4720,327,4800,277.7C4880,229,4960,114,5040,73.5C5120,33,5200,65,5280,106.2C5360,147,5440,196,5520,228.7C5600,261,5680,278,5720,285.8L5760,294L5760,490L5720,490C5680,490,5600,490,5520,490C5440,490,5360,490,5280,490C5200,490,5120,490,5040,490C4960,490,4880,490,4800,490C4720,490,4640,490,4560,490C4480,490,4400,490,4320,490C4240,490,4160,490,4080,490C4000,490,3920,490,3840,490C3760,490,3680,490,3600,490C3520,490,3440,490,3360,490C3280,490,3200,490,3120,490C3040,490,2960,490,2880,490C2800,490,2720,490,2640,490C2560,490,2480,490,2400,490C2320,490,2240,490,2160,490C2080,490,2000,490,1920,490C1840,490,1760,490,1680,490C1600,490,1520,490,1440,490C1360,490,1280,490,1200,490C1120,490,1040,490,960,490C880,490,800,490,720,490C640,490,560,490,480,490C400,490,320,490,240,490C160,490,80,490,40,490L0,490Z"/><defs><linearGradient id="sw-gradient-1" x1="0" x2="0" y1="1" y2="0"><stop stop-color="rgba(41, 50, 60, 1)" offset="0%"/><stop stop-color="rgba(73, 109, 150, 1)" offset="100%"/></linearGradient></defs><path style="transform:translate(0, 50px); opacity:0.9" fill="url(#sw-gradient-1)" d="M0,0L40,40.8C80,82,160,163,240,212.3C320,261,400,278,480,245C560,212,640,131,720,89.8C800,49,880,49,960,73.5C1040,98,1120,147,1200,138.8C1280,131,1360,65,1440,81.7C1520,98,1600,196,1680,253.2C1760,310,1840,327,1920,285.8C2000,245,2080,147,2160,147C2240,147,2320,245,2400,294C2480,343,2560,343,2640,285.8C2720,229,2800,114,2880,89.8C2960,65,3040,131,3120,147C3200,163,3280,131,3360,114.3C3440,98,3520,98,3600,147C3680,196,3760,294,3840,285.8C3920,278,4000,163,4080,130.7C4160,98,4240,147,4320,155.2C4400,163,4480,131,4560,138.8C4640,147,4720,196,4800,179.7C4880,163,4960,82,5040,49C5120,16,5200,33,5280,98C5360,163,5440,278,5520,310.3C5600,343,5680,294,5720,269.5L5760,245L5760,490L5720,490C5680,490,5600,490,5520,490C5440,490,5360,490,5280,490C5200,490,5120,490,5040,490C4960,490,4880,490,4800,490C4720,490,4640,490,4560,490C4480,490,4400,490,4320,490C4240,490,4160,490,4080,490C4000,490,3920,490,3840,490C3760,490,3680,490,3600,490C3520,490,3440,490,3360,490C3280,490,3200,490,3120,490C3040,490,2960,490,2880,490C2800,490,2720,490,2640,490C2560,490,2480,490,2400,490C2320,490,2240,490,2160,490C2080,490,2000,490,1920,490C1840,490,1760,490,1680,490C1600,490,1520,490,1440,490C1360,490,1280,490,1200,490C1120,490,1040,490,960,490C880,490,800,490,720,490C640,490,560,490,480,490C400,490,320,490,240,490C160,490,80,490,40,490L0,490Z"/></svg>