<?xml version="1.0" standalone="no"?>
<svg xmlns:xlink="http://www.w3.org/1999/xlink" id="wave" style="transform:rotate(180deg); transition: 0.3s" viewBox="0 0 1440 160" version="1.1" xmlns="http://www.w3.org/2000/svg"><defs><linearGradient id="sw-gradient-0" x1="0" x2="0" y1="1" y2="0"><stop stop-color="rgba(41, 50, 60, 1)" offset="0%"/><stop stop-color="rgba(73, 109, 150, 1)" offset="100%"/></linearGradient></defs><path style="transform:translate(0, 0px); opacity:1" fill="url(#sw-gradient-0)" d="M0,128L40,109.3C80,91,160,53,240,50.7C320,48,400,80,480,85.3C560,91,640,69,720,64C800,59,880,69,960,69.3C1040,69,1120,59,1200,69.3C1280,80,1360,112,1440,106.7C1520,101,1600,59,1680,48C1760,37,1840,59,1920,72C2000,85,2080,91,2160,90.7C2240,91,2320,85,2400,82.7C2480,80,2560,80,2640,90.7C2720,101,2800,123,2880,125.3C2960,128,3040,112,3120,101.3C3200,91,3280,85,3360,90.7C3440,96,3520,112,3600,98.7C3680,85,3760,43,3840,45.3C3920,48,4000,96,4080,98.7C4160,101,4240,59,4320,45.3C4400,32,4480,48,4560,48C4640,48,4720,32,4800,21.3C4880,11,4960,5,5040,26.7C5120,48,5200,96,5280,106.7C5360,117,5440,91,5520,85.3C5600,80,5680,96,5720,104L5760,112L5760,160L5720,160C5680,160,5600,160,5520,160C5440,160,5360,160,5280,160C5200,160,5120,160,5040,160C4960,160,4880,160,4800,160C4720,160,4640,160,4560,160C4480,160,4400,160,4320,160C4240,160,4160,160,4080,160C4000,160,3920,160,3840,160C3760,160,3680,160,3600,160C3520,160,3440,160,3360,160C3280,160,3200,160,3120,160C3040,160,2960,160,2880,160C2800,160,2720,160,2640,160C2560,160,2480,160,2400,160C2320,160,2240,160,2160,160C2080,160,2000,160,1920,160C1840,160,1760,160,1680,160C1600,160,1520,160,1440,160C1360,160,1280,160,1200,160C1120,160,1040,160,960,160C880,160,800,160,720,160C640,160,560,160,480,160C400,160,320,160,240,160C160,160,80,160,40,160L0,160Z"/></svg>