<?xml version="1.0" standalone="no"?>
<svg xmlns:xlink="http://www.w3.org/1999/xlink" id="wave" style="transform:rotate(0deg); transition: 0.3s" viewBox="0 0 1440 490" version="1.1" xmlns="http://www.w3.org/2000/svg"><defs><linearGradient id="sw-gradient-0" x1="0" x2="0" y1="1" y2="0"><stop stop-color="rgba(41, 50, 60, 1)" offset="0%"/><stop stop-color="rgba(73, 109, 150, 1)" offset="100%"/></linearGradient></defs><path style="transform:translate(0, 0px); opacity:1" fill="url(#sw-gradient-0)" d="M0,49L40,114.3C80,180,160,310,240,326.7C320,343,400,245,480,220.5C560,196,640,245,720,236.8C800,229,880,163,960,155.2C1040,147,1120,196,1200,204.2C1280,212,1360,180,1440,187.8C1520,196,1600,245,1680,228.7C1760,212,1840,131,1920,155.2C2000,180,2080,310,2160,318.5C2240,327,2320,212,2400,196C2480,180,2560,261,2640,269.5C2720,278,2800,212,2880,163.3C2960,114,3040,82,3120,98C3200,114,3280,180,3360,179.7C3440,180,3520,114,3600,81.7C3680,49,3760,49,3840,65.3C3920,82,4000,114,4080,106.2C4160,98,4240,49,4320,89.8C4400,131,4480,261,4560,318.5C4640,376,4720,359,4800,334.8C4880,310,4960,278,5040,236.8C5120,196,5200,147,5280,106.2C5360,65,5440,33,5520,16.3C5600,0,5680,0,5720,0L5760,0L5760,490L5720,490C5680,490,5600,490,5520,490C5440,490,5360,490,5280,490C5200,490,5120,490,5040,490C4960,490,4880,490,4800,490C4720,490,4640,490,4560,490C4480,490,4400,490,4320,490C4240,490,4160,490,4080,490C4000,490,3920,490,3840,490C3760,490,3680,490,3600,490C3520,490,3440,490,3360,490C3280,490,3200,490,3120,490C3040,490,2960,490,2880,490C2800,490,2720,490,2640,490C2560,490,2480,490,2400,490C2320,490,2240,490,2160,490C2080,490,2000,490,1920,490C1840,490,1760,490,1680,490C1600,490,1520,490,1440,490C1360,490,1280,490,1200,490C1120,490,1040,490,960,490C880,490,800,490,720,490C640,490,560,490,480,490C400,490,320,490,240,490C160,490,80,490,40,490L0,490Z"/><defs><linearGradient id="sw-gradient-1" x1="0" x2="0" y1="1" y2="0"><stop stop-color="rgba(41, 50, 60, 1)" offset="0%"/><stop stop-color="rgba(73, 109, 150, 1)" offset="100%"/></linearGradient></defs><path style="transform:translate(0, 50px); opacity:0.9" fill="url(#sw-gradient-1)" d="M0,147L40,196C80,245,160,343,240,343C320,343,400,245,480,204.2C560,163,640,180,720,204.2C800,229,880,261,960,245C1040,229,1120,163,1200,122.5C1280,82,1360,65,1440,49C1520,33,1600,16,1680,32.7C1760,49,1840,98,1920,98C2000,98,2080,49,2160,73.5C2240,98,2320,196,2400,204.2C2480,212,2560,131,2640,130.7C2720,131,2800,212,2880,220.5C2960,229,3040,163,3120,130.7C3200,98,3280,98,3360,81.7C3440,65,3520,33,3600,24.5C3680,16,3760,33,3840,89.8C3920,147,4000,245,4080,261.3C4160,278,4240,212,4320,171.5C4400,131,4480,114,4560,106.2C4640,98,4720,98,4800,155.2C4880,212,4960,327,5040,310.3C5120,294,5200,147,5280,81.7C5360,16,5440,33,5520,73.5C5600,114,5680,180,5720,212.3L5760,245L5760,490L5720,490C5680,490,5600,490,5520,490C5440,490,5360,490,5280,490C5200,490,5120,490,5040,490C4960,490,4880,490,4800,490C4720,490,4640,490,4560,490C4480,490,4400,490,4320,490C4240,490,4160,490,4080,490C4000,490,3920,490,3840,490C3760,490,3680,490,3600,490C3520,490,3440,490,3360,490C3280,490,3200,490,3120,490C3040,490,2960,490,2880,490C2800,490,2720,490,2640,490C2560,490,2480,490,2400,490C2320,490,2240,490,2160,490C2080,490,2000,490,1920,490C1840,490,1760,490,1680,490C1600,490,1520,490,1440,490C1360,490,1280,490,1200,490C1120,490,1040,490,960,490C880,490,800,490,720,490C640,490,560,490,480,490C400,490,320,490,240,490C160,490,80,490,40,490L0,490Z"/></svg>