<?xml version="1.0" standalone="no"?>
<svg xmlns:xlink="http://www.w3.org/1999/xlink" id="wave" style="transform:rotate(180deg); transition: 0.3s" viewBox="0 0 1440 490" version="1.1" xmlns="http://www.w3.org/2000/svg"><defs><linearGradient id="sw-gradient-0" x1="0" x2="0" y1="1" y2="0"><stop stop-color="rgba(41, 50, 60, 1)" offset="0%"/><stop stop-color="rgba(73, 109, 150, 1)" offset="100%"/></linearGradient></defs><path style="transform:translate(0, 0px); opacity:1" fill="url(#sw-gradient-0)" d="M0,147L80,187.8C160,229,320,310,480,294C640,278,800,163,960,138.8C1120,114,1280,180,1440,187.8C1600,196,1760,147,1920,138.8C2080,131,2240,163,2400,204.2C2560,245,2720,294,2880,261.3C3040,229,3200,114,3360,57.2C3520,0,3680,0,3840,65.3C4000,131,4160,261,4320,334.8C4480,408,4640,425,4800,359.3C4960,294,5120,147,5280,106.2C5440,65,5600,131,5760,147C5920,163,6080,131,6240,171.5C6400,212,6560,327,6720,359.3C6880,392,7040,343,7200,310.3C7360,278,7520,261,7680,228.7C7840,196,8000,147,8160,138.8C8320,131,8480,163,8640,187.8C8800,212,8960,229,9120,261.3C9280,294,9440,343,9600,375.7C9760,408,9920,425,10080,408.3C10240,392,10400,343,10560,285.8C10720,229,10880,163,11040,114.3C11200,65,11360,33,11440,16.3L11520,0L11520,490L11440,490C11360,490,11200,490,11040,490C10880,490,10720,490,10560,490C10400,490,10240,490,10080,490C9920,490,9760,490,9600,490C9440,490,9280,490,9120,490C8960,490,8800,490,8640,490C8480,490,8320,490,8160,490C8000,490,7840,490,7680,490C7520,490,7360,490,7200,490C7040,490,6880,490,6720,490C6560,490,6400,490,6240,490C6080,490,5920,490,5760,490C5600,490,5440,490,5280,490C5120,490,4960,490,4800,490C4640,490,4480,490,4320,490C4160,490,4000,490,3840,490C3680,490,3520,490,3360,490C3200,490,3040,490,2880,490C2720,490,2560,490,2400,490C2240,490,2080,490,1920,490C1760,490,1600,490,1440,490C1280,490,1120,490,960,490C800,490,640,490,480,490C320,490,160,490,80,490L0,490Z"/><defs><linearGradient id="sw-gradient-1" x1="0" x2="0" y1="1" y2="0"><stop stop-color="rgba(41, 50, 60, 1)" offset="0%"/><stop stop-color="rgba(73, 109, 150, 1)" offset="100%"/></linearGradient></defs><path style="transform:translate(0, 50px); opacity:0.9" fill="url(#sw-gradient-1)" d="M0,392L80,400.2C160,408,320,425,480,383.8C640,343,800,245,960,179.7C1120,114,1280,82,1440,81.7C1600,82,1760,114,1920,163.3C2080,212,2240,278,2400,310.3C2560,343,2720,343,2880,351.2C3040,359,3200,376,3360,375.7C3520,376,3680,359,3840,351.2C4000,343,4160,343,4320,318.5C4480,294,4640,245,4800,212.3C4960,180,5120,163,5280,147C5440,131,5600,114,5760,122.5C5920,131,6080,163,6240,179.7C6400,196,6560,196,6720,220.5C6880,245,7040,294,7200,261.3C7360,229,7520,114,7680,114.3C7840,114,8000,229,8160,277.7C8320,327,8480,310,8640,310.3C8800,310,8960,327,9120,343C9280,359,9440,376,9600,318.5C9760,261,9920,131,10080,98C10240,65,10400,131,10560,138.8C10720,147,10880,98,11040,73.5C11200,49,11360,49,11440,49L11520,49L11520,490L11440,490C11360,490,11200,490,11040,490C10880,490,10720,490,10560,490C10400,490,10240,490,10080,490C9920,490,9760,490,9600,490C9440,490,9280,490,9120,490C8960,490,8800,490,8640,490C8480,490,8320,490,8160,490C8000,490,7840,490,7680,490C7520,490,7360,490,7200,490C7040,490,6880,490,6720,490C6560,490,6400,490,6240,490C6080,490,5920,490,5760,490C5600,490,5440,490,5280,490C5120,490,4960,490,4800,490C4640,490,4480,490,4320,490C4160,490,4000,490,3840,490C3680,490,3520,490,3360,490C3200,490,3040,490,2880,490C2720,490,2560,490,2400,490C2240,490,2080,490,1920,490C1760,490,1600,490,1440,490C1280,490,1120,490,960,490C800,490,640,490,480,490C320,490,160,490,80,490L0,490Z"/></svg>