<?xml version="1.0" standalone="no"?>
<svg xmlns:xlink="http://www.w3.org/1999/xlink" id="wave" style="transform:rotate(0deg); transition: 0.3s" viewBox="0 0 1440 300" version="1.1" xmlns="http://www.w3.org/2000/svg"><defs><linearGradient id="sw-gradient-0" x1="0" x2="0" y1="1" y2="0"><stop stop-color="rgba(41, 50, 60, 1)" offset="0%"/><stop stop-color="rgba(73, 109, 150, 1)" offset="100%"/></linearGradient></defs><path style="transform:translate(0, 0px); opacity:1" fill="url(#sw-gradient-0)" d="M0,90L40,110C80,130,160,170,240,160C320,150,400,90,480,70C560,50,640,70,720,105C800,140,880,190,960,190C1040,190,1120,140,1200,145C1280,150,1360,210,1440,240C1520,270,1600,270,1680,250C1760,230,1840,190,1920,185C2000,180,2080,210,2160,195C2240,180,2320,120,2400,95C2480,70,2560,80,2640,85C2720,90,2800,90,2880,85C2960,80,3040,70,3120,55C3200,40,3280,20,3360,30C3440,40,3520,80,3600,120C3680,160,3760,200,3840,185C3920,170,4000,100,4080,95C4160,90,4240,150,4320,180C4400,210,4480,210,4560,185C4640,160,4720,110,4800,75C4880,40,4960,20,5040,40C5120,60,5200,120,5280,120C5360,120,5440,60,5520,60C5600,60,5680,120,5720,150L5760,180L5760,300L5720,300C5680,300,5600,300,5520,300C5440,300,5360,300,5280,300C5200,300,5120,300,5040,300C4960,300,4880,300,4800,300C4720,300,4640,300,4560,300C4480,300,4400,300,4320,300C4240,300,4160,300,4080,300C4000,300,3920,300,3840,300C3760,300,3680,300,3600,300C3520,300,3440,300,3360,300C3280,300,3200,300,3120,300C3040,300,2960,300,2880,300C2800,300,2720,300,2640,300C2560,300,2480,300,2400,300C2320,300,2240,300,2160,300C2080,300,2000,300,1920,300C1840,300,1760,300,1680,300C1600,300,1520,300,1440,300C1360,300,1280,300,1200,300C1120,300,1040,300,960,300C880,300,800,300,720,300C640,300,560,300,480,300C400,300,320,300,240,300C160,300,80,300,40,300L0,300Z"/><defs><linearGradient id="sw-gradient-1" x1="0" x2="0" y1="1" y2="0"><stop stop-color="rgba(41, 50, 60, 1)" offset="0%"/><stop stop-color="rgba(73, 109, 150, 1)" offset="100%"/></linearGradient></defs><path style="transform:translate(0, 50px); opacity:0.9" fill="url(#sw-gradient-1)" d="M0,0L40,20C80,40,160,80,240,105C320,130,400,140,480,125C560,110,640,70,720,80C800,90,880,150,960,155C1040,160,1120,110,1200,100C1280,90,1360,120,1440,145C1520,170,1600,190,1680,185C1760,180,1840,150,1920,155C2000,160,2080,200,2160,225C2240,250,2320,260,2400,230C2480,200,2560,130,2640,110C2720,90,2800,120,2880,140C2960,160,3040,170,3120,170C3200,170,3280,160,3360,165C3440,170,3520,190,3600,165C3680,140,3760,70,3840,80C3920,90,4000,180,4080,195C4160,210,4240,150,4320,145C4400,140,4480,190,4560,190C4640,190,4720,140,4800,125C4880,110,4960,130,5040,130C5120,130,5200,110,5280,130C5360,150,5440,210,5520,200C5600,190,5680,110,5720,70L5760,30L5760,300L5720,300C5680,300,5600,300,5520,300C5440,300,5360,300,5280,300C5200,300,5120,300,5040,300C4960,300,4880,300,4800,300C4720,300,4640,300,4560,300C4480,300,4400,300,4320,300C4240,300,4160,300,4080,300C4000,300,3920,300,3840,300C3760,300,3680,300,3600,300C3520,300,3440,300,3360,300C3280,300,3200,300,3120,300C3040,300,2960,300,2880,300C2800,300,2720,300,2640,300C2560,300,2480,300,2400,300C2320,300,2240,300,2160,300C2080,300,2000,300,1920,300C1840,300,1760,300,1680,300C1600,300,1520,300,1440,300C1360,300,1280,300,1200,300C1120,300,1040,300,960,300C880,300,800,300,720,300C640,300,560,300,480,300C400,300,320,300,240,300C160,300,80,300,40,300L0,300Z"/></svg>