<svg height="512" viewBox="0 0 512 512" width="512" xmlns="http://www.w3.org/2000/svg"><g id="Flat"><path d="m312 192-16 176h24l24-72 16-56 32 24v48h24l8-64-40-56z" fill="#68737f"/><path d="m464 88-40 32-40 8v64h-32l-8-8v-16h-16l-24 24-40-40 24-56 32-16h48l32 8 24-8 16-16z" fill="#529ddf"/><path d="m384 56-8 8v16h-8v8l-5.33 8-10.67 16-32-32 16-56h40v16z" fill="#fdc5ca"/><path d="m376 32h-42.28571l4.57142-16h53.71429a16 16 0 0 1 -16 16z" fill="#ba8b5d"/><path d="m368 80v8l-5.33 8h-9.3l-12.68-12.69 11.31-11.31 8 8z" fill="#fc979e"/><path d="m339.32007 168h-11.32007l-5.65991 5.65991-24-24a8.01729 8.01729 0 0 1 -1.5-9.24l8-16 14.31982 7.16016-5.42991 10.83985z" fill="#4384c3"/><path d="m360 100v92h-16v-88l8 8z" fill="#4384c3"/><path d="m328 168h16v16l16 16-24 24-32-32z" fill="#fdc5ca"/><path d="m296 368h48a0 0 0 0 1 0 0v32a0 0 0 0 1 0 0h-32a16 16 0 0 1 -16-16v-16a0 0 0 0 1 0 0z" fill="#4f5761" transform="matrix(-1 0 0 -1 640 768)"/><path d="m392 312h48a0 0 0 0 1 0 0v32a0 0 0 0 1 0 0h-32a16 16 0 0 1 -16-16v-16a0 0 0 0 1 0 0z" fill="#4f5761" transform="matrix(-1 0 0 -1 832 656)"/><path d="m485.65991 40.97-10.36991 10.36008c.24.21.48.43994.71.66992a16.972 16.972 0 0 1 0 24l-12 12-24-24 34.34009-34.34009a8.00087 8.00087 0 0 1 11.31982 11.31009z" fill="#fdc5ca"/><path d="m192 496h-16v-40a8.00008 8.00008 0 0 1 8-8h88v-48a8.00008 8.00008 0 0 1 8-8h88v-48a8.00008 8.00008 0 0 1 8-8h120v16h-112v48a8.00008 8.00008 0 0 1 -8 8h-88v48a8.00008 8.00008 0 0 1 -8 8h-88z" fill="#7ab355"/><path d="m88 360 8-16 8-8-8-16v-16h-40l-16 56z" fill="#fdc5ca"/><path d="m96 312h-42.28571l4.57142-16h53.71429a16 16 0 0 1 -16 16z" fill="#ba8b5d"/><path d="m184 368-40 40-32 8v56h-88v-104l16-8h48l32 8 24-8 16-16z" fill="#529ddf"/><path d="m24 472h88v24h-88z" fill="#68737f"/><path d="m112 366v106h-16v-110z" fill="#4384c3"/><path d="m96 472h16v24h-16z" fill="#4f5761"/><path d="m184 360 8-16 8-8-8-16v-16h-40l-16 56z" fill="#fdc5ca"/><path d="m192 312h-42.28571l4.57142-16h53.71429a16 16 0 0 1 -16 16z" fill="#ba8b5d"/><path d="m272 336-8 56-64 32v48h-88v-104l24-8h48l24 8 24-8 8-24z" fill="#529ddf"/><path d="m112 472h88v24h-88z" fill="#68737f"/><path d="m240 336-16-16 16-8v-24h32v48z" fill="#fdc5ca"/><path d="m200 424v19.23l-32.88-21.92 8.88-13.31z" fill="#4384c3"/></g></svg>